<?xml version="1.0" encoding="utf-8"?>
<svg version="1.0" width="512.000000pt" height="512.000000pt" viewBox="0 0 512.000000 512.000000" preserveAspectRatio="xMidYMid meet" xmlns="http://www.w3.org/2000/svg">
  <g transform="matrix(0.133755, 0, 0, -0.133755, -84.837975, 595.780396)" fill="#000000" stroke="none" style="">
    <path d="M2370 3744 c-429 -53 -831 -255 -1156 -581 -212 -213 -354 -455 -354 -603 0 -100 65 -248 177 -398 75 -103 319 -343 422 -416 527 -376 1093 -470 1675 -278 293 96 569 272 795 508 200 208 321 427 321 582 0 157 -120 376 -320 586 -294 307 -640 498 -1050 578 -102 19 -418 33 -510 22z m389 -230 c259 -38 474 -117 681 -252 252 -163 445 -362 543 -560 58 -118 58 -166 0 -283 -97 -195 -288 -394 -530 -553 -308 -202 -683 -300 -1022 -267 -456 44 -884 282 -1186 659 -97 121 -165 245 -165 302 0 125 245 435 490 619 272 205 475 288 840 344 64 10 253 5 349 -9z" style="fill: rgb(62, 75, 216);"/>
    <path d="M2465 3061 l-18 -69 -56 -23 -55 -23 -59 33 -60 33 -55 -55 -55 -55 34 -60 33 -60 -19 -44 c-27 -62 -29 -63 -100 -83 l-65 -17 0 -78 0 -78 65 -17 c71 -20 73 -21 100 -83 l19 -44 -33 -60 -34 -60 55 -55 55 -55 60 33 59 33 55 -23 56 -23 18 -69 17 -69 78 0 78 0 17 69 18 69 56 23 55 23 59 -33 60 -33 55 55 55 55 -34 60 -33 60 19 44 c27 62 29 63 100 83 l65 17 0 78 0 78 -65 17 c-71 20 -73 21 -100 83 l-19 44 33 60 34 60 -55 55 -55 55 -60 -33 -59 -33 -55 23 -56 23 -18 69 -17 69 -78 0 -78 0 -17 -69z m185 -292 c60 -27 88 -54 116 -114 31 -64 31 -125 0 -191 -83 -178 -329 -178 -412 0 -31 66 -31 126 0 192 53 114 184 164 296 113z" style="fill: rgb(62, 75, 216);"/>
  </g>
</svg>