<?xml version="1.0" encoding="utf-8"?>
<svg width="256px" height="244px" viewBox="0 0 256 110" version="1.1" preserveAspectRatio="xMidYMid" xmlns="http://www.w3.org/2000/svg">
  <defs>
    <linearGradient x1="49.9972467%" y1="-19.5160457%" x2="49.9972467%" y2="129.625092%" id="linearGradient-1">
      <stop stop-color="#0994DC" offset="0"/>
      <stop stop-color="#66CEF5" offset="0.35"/>
      <stop stop-color="#66CEF5" offset="0.35"/>
      <stop stop-color="#127BCA" offset="0.8462"/>
      <stop stop-color="#127BCA" offset="0.8462"/>
      <stop stop-color="#127BCA" offset="1"/>
    </linearGradient>
    <linearGradient x1="50.0007616%" y1="-19.5161868%" x2="50.0007616%" y2="129.624154%" id="linearGradient-2">
      <stop stop-color="#0E76BC" offset="0"/>
      <stop stop-color="#36AEE8" offset="0.36"/>
      <stop stop-color="#36AEE8" offset="0.36"/>
      <stop stop-color="#00ADEF" offset="0.8462"/>
      <stop stop-color="#00ADEF" offset="0.8462"/>
      <stop stop-color="#00ADEF" offset="1"/>
    </linearGradient>
    <linearGradient x1="49.9991979%" y1="110.921751%" x2="49.9991979%" y2="-6.21395776%" id="linearGradient-3">
      <stop stop-color="#1C63B7" offset="0"/>
      <stop stop-color="#33BDF2" offset="0.5"/>
      <stop stop-color="#33BDF2" stop-opacity="0.41960785" offset="1"/>
    </linearGradient>
    <linearGradient x1="50.0009899%" y1="-19.5149993%" x2="50.0009899%" y2="129.627315%" id="linearGradient-4">
      <stop stop-color="#166AB8" offset="0"/>
      <stop stop-color="#36AEE8" offset="0.4"/>
      <stop stop-color="#36AEE8" offset="0.4"/>
      <stop stop-color="#0798DD" offset="0.8462"/>
      <stop stop-color="#0798DD" offset="0.8462"/>
      <stop stop-color="#0798DD" offset="1"/>
    </linearGradient>
    <linearGradient x1="49.9985422%" y1="-19.5211325%" x2="49.9985422%" y2="129.626892%" id="linearGradient-5">
      <stop stop-color="#124379" offset="0"/>
      <stop stop-color="#1487CB" offset="0.39"/>
      <stop stop-color="#1487CB" offset="0.39"/>
      <stop stop-color="#165197" offset="0.7802"/>
      <stop stop-color="#165197" offset="0.7802"/>
      <stop stop-color="#165197" offset="1"/>
    </linearGradient>
    <linearGradient x1="0.000304652977%" y1="50.000544%" x2="100.000291%" y2="50.000544%" id="linearGradient-6">
      <stop stop-color="#33BDF2" stop-opacity="0.69803923" offset="0"/>
      <stop stop-color="#1DACD8" offset="1"/>
    </linearGradient>
    <linearGradient x1="50.0095709%" y1="94.6864084%" x2="50.0095709%" y2="-3.02458407%" id="linearGradient-7">
      <stop stop-color="#136AB4" offset="0"/>
      <stop stop-color="#59CAF5" stop-opacity="0.54901963" offset="0.6"/>
      <stop stop-color="#59CAF5" stop-opacity="0.23529412" offset="1"/>
    </linearGradient>
    <linearGradient x1="-0.000760861053%" y1="49.999714%" x2="99.9992241%" y2="49.999714%" id="linearGradient-8">
      <stop stop-color="#05A1E6" stop-opacity="0.24705882" offset="0"/>
      <stop stop-color="#05A1E6" offset="1"/>
    </linearGradient>
    <linearGradient x1="49.9983236%" y1="124.313712%" x2="49.9983236%" y2="-9.42137278%" id="linearGradient-9">
      <stop stop-color="#318ED5" offset="0"/>
      <stop stop-color="#38A7E4" offset="1"/>
    </linearGradient>
    <linearGradient x1="49.99857%" y1="91.1999524%" x2="49.99857%" y2="-76.7854074%" id="linearGradient-10">
      <stop stop-color="#05A1E6" offset="0"/>
      <stop stop-color="#05A1E6" stop-opacity="0.54901963" offset="1"/>
    </linearGradient>
    <linearGradient x1="50.0000694%" y1="100.01049%" x2="50.0000694%" y2="0.0101898204%" id="linearGradient-11">
      <stop stop-color="#1959A6" offset="0"/>
      <stop stop-color="#05A1E6" offset="0.5"/>
      <stop stop-color="#05A1E6" offset="0.5"/>
      <stop stop-color="#7EC5EA" offset="0.9176"/>
      <stop stop-color="#7EC5EA" offset="1"/>
    </linearGradient>
    <linearGradient x1="59.8041209%" y1="94.5677442%" x2="38.4710575%" y2="5.75513731%" id="linearGradient-12">
      <stop stop-color="#165096" offset="0"/>
      <stop stop-color="#0D82CA" offset="1"/>
    </linearGradient>
    <linearGradient x1="49.9946843%" y1="76.9980959%" x2="49.9946843%" y2="-3.29893613%" id="linearGradient-13">
      <stop stop-color="#05A1E6" offset="0"/>
      <stop stop-color="#0495D6" offset="0.8736"/>
      <stop stop-color="#0495D6" offset="1"/>
    </linearGradient>
    <linearGradient x1="65.2631169%" y1="-4.16143813%" x2="34.2626975%" y2="105.843625%" id="linearGradient-14">
      <stop stop-color="#38A7E4" stop-opacity="0.32941177" offset="0"/>
      <stop stop-color="#0E88D3" offset="0.9615"/>
      <stop stop-color="#0E88D3" offset="0.9615"/>
      <stop stop-color="#0E88D3" offset="1"/>
    </linearGradient>
    <linearGradient x1="50.016714%" y1="-0.295776148%" x2="50.016714%" y2="101.881944%" id="linearGradient-15">
      <stop stop-color="#168CD4" offset="0"/>
      <stop stop-color="#1C87CC" offset="0.5"/>
      <stop stop-color="#154B8D" offset="1"/>
    </linearGradient>
    <linearGradient x1="16.6738062%" y1="205.564966%" x2="87.8125992%" y2="-19.8362753%" id="linearGradient-16">
      <stop stop-color="#97D6EE" offset="0"/>
      <stop stop-color="#55C1EA" offset="0.7033"/>
      <stop stop-color="#55C1EA" offset="1"/>
    </linearGradient>
    <linearGradient x1="6.89015912%" y1="6.30038251%" x2="75.7828966%" y2="116.770678%" id="linearGradient-17">
      <stop stop-color="#7ACCEC" offset="0"/>
      <stop stop-color="#3FB7ED" offset="1"/>
    </linearGradient>
    <linearGradient x1="49.9966533%" y1="6.36281892%" x2="49.9966533%" y2="127.96135%" id="linearGradient-18">
      <stop stop-color="#1DA7E7" offset="0"/>
      <stop stop-color="#37ABE7" stop-opacity="0" offset="1"/>
    </linearGradient>
  </defs>
  <g>
    <g transform="translate(0.810127, 0.000000)">
      <path d="M 89.094 25.442 C 98.258 53.468 101.731 103.464 128.53 103.464 C 130.571 103.464 132.632 103.265 134.701 102.871 C 110.339 97.191 107.452 47.738 92.586 22.129 C 91.421 23.188 90.263 24.293 89.094 25.442" fill="url(#linearGradient-1)"/>
      <path d="M 92.586 22.129 C 107.452 47.738 110.339 97.191 134.701 102.871 C 136.615 102.519 138.533 101.988 140.455 101.317 C 118.588 90.602 112.544 42.581 95.662 19.463 C 94.639 20.314 93.613 21.205 92.586 22.129" fill="url(#linearGradient-2)"/>
      <path d="M 114.005 6.899 C 111.969 6.899 109.903 7.099 107.83 7.492 C 102.407 8.515 96.899 10.85 91.345 14.383 C 92.862 15.88 94.305 17.593 95.663 19.462 C 101.311 14.776 106.922 11.312 112.513 9.23 C 114.611 8.453 116.701 7.868 118.798 7.484 C 117.285 7.099 115.69 6.899 114.005 6.899" fill="#14559A"/>
      <path d="M 157.526 91.44 C 159.763 89.661 162.004 87.694 164.249 85.547 C 154.937 57.652 151.604 6.94 124.616 6.94 C 122.686 6.94 120.739 7.12 118.797 7.48 C 143.379 13.594 146.528 67.078 157.526 91.44" fill="url(#linearGradient-3)"/>
      <path d="M 118.797 7.482 C 117.284 7.098 115.689 6.897 114.004 6.897 L 124.617 6.936 C 122.687 6.936 120.74 7.116 118.797 7.48" fill="#3092C4"/>
      <path d="M 157.054 97.366 C 155.999 96.36 154.997 95.256 154.012 94.078 C 149.472 97.293 144.949 99.73 140.455 101.317 C 142.053 102.098 143.73 102.679 145.509 103.039 C 146.887 103.32 148.315 103.464 149.816 103.464 C 154.858 103.464 158.845 102.867 162.24 101.239 C 160.371 100.229 158.657 98.92 157.054 97.366" fill="#1969BC"/>
      <path d="M 112.511 9.235 C 134.53 20.751 136.443 72.902 154.013 94.078 C 155.19 93.248 156.356 92.369 157.521 91.44 C 146.524 67.078 143.379 13.59 118.801 7.48 C 116.703 7.873 114.609 8.454 112.511 9.235" fill="url(#linearGradient-4)"/>
      <path d="M 95.662 19.463 C 112.544 42.581 118.588 90.602 140.455 101.317 C 144.95 99.73 149.473 97.293 154.013 94.078 C 136.443 72.902 134.53 20.751 112.511 9.235 C 106.92 11.312 101.309 14.776 95.662 19.463" fill="url(#linearGradient-5)"/>
      <path d="M 78.293 24.767 C 75.646 30.75 72.943 38.615 69.676 48.88 C 76.174 39.723 82.652 31.834 89.093 25.442 C 88.206 22.714 87.253 20.199 86.226 17.958 C 83.593 19.974 80.938 22.244 78.293 24.767" fill="url(#linearGradient-6)"/>
      <path d="M 88.573 16.233 C 87.796 16.789 87.015 17.357 86.23 17.958 C 87.256 20.199 88.205 22.715 89.092 25.442 C 90.262 24.297 91.423 23.189 92.585 22.13 C 91.337 19.987 90.012 18.007 88.573 16.233" fill="#2B74B1"/>
      <path d="M 91.345 14.383 C 90.421 14.968 89.501 15.585 88.572 16.231 C 90.012 18.006 91.337 19.986 92.588 22.133 C 93.615 21.205 94.641 20.309 95.664 19.462 C 94.306 17.594 92.862 15.88 91.345 14.383" fill="#125A9E"/>
      <path d="M 241.531 4.765 C 229.078 52.789 203.068 91.363 181.262 101.088 L 181.22 101.088 C 180.824 101.268 180.431 101.431 180.043 101.591 C 179.989 101.623 179.941 101.627 179.899 101.647 C 179.785 101.693 179.679 101.728 179.564 101.774 C 179.511 101.807 179.462 101.817 179.413 101.837 C 179.229 101.902 179.049 101.958 178.869 102.03 C 178.791 102.062 178.718 102.082 178.644 102.108 C 178.562 102.141 178.468 102.171 178.374 102.197 C 178.292 102.229 178.206 102.253 178.112 102.288 C 178.034 102.321 177.953 102.334 177.879 102.367 C 177.72 102.413 177.573 102.452 177.413 102.507 C 177.347 102.507 177.286 102.543 177.217 102.56 C 177.119 102.592 177.008 102.616 176.902 102.645 C 176.828 102.677 176.767 102.688 176.689 102.704 C 176.578 102.737 176.456 102.767 176.345 102.793 C 176.198 102.825 176.067 102.855 175.928 102.884 C 176.914 103.248 177.94 103.432 179.049 103.432 C 199.726 103.432 220.575 66.376 255.071 4.754 L 241.526 4.754 L 241.531 4.765 Z" fill="url(#linearGradient-7)"/>
      <path d="M 65.185 8.848 C 65.198 8.848 65.214 8.816 65.222 8.816 C 65.239 8.816 65.264 8.816 65.272 8.783 L 65.298 8.783 C 65.412 8.744 65.519 8.698 65.633 8.656 C 65.662 8.656 65.678 8.656 65.699 8.623 C 65.728 8.623 65.756 8.591 65.785 8.587 C 65.908 8.548 66.03 8.502 66.145 8.459 L 66.164 8.459 C 66.438 8.377 66.692 8.276 66.958 8.181 C 66.995 8.181 67.031 8.149 67.076 8.149 C 67.187 8.113 67.301 8.073 67.415 8.047 C 67.469 8.015 67.522 8.015 67.571 7.998 C 67.689 7.962 67.804 7.922 67.914 7.896 C 67.964 7.896 68.009 7.864 68.045 7.861 C 68.426 7.756 68.802 7.658 69.182 7.566 C 69.236 7.566 69.28 7.534 69.338 7.531 C 69.448 7.498 69.55 7.481 69.669 7.465 C 69.718 7.433 69.775 7.433 69.832 7.416 C 69.943 7.383 70.049 7.38 70.168 7.353 L 70.246 7.353 C 70.475 7.307 70.708 7.268 70.937 7.226 L 71.076 7.226 C 71.186 7.193 71.284 7.19 71.395 7.17 C 71.456 7.17 71.517 7.137 71.575 7.137 C 71.677 7.137 71.779 7.105 71.881 7.091 C 71.935 7.091 71.988 7.091 72.049 7.059 C 72.29 7.026 72.54 7.013 72.793 6.993 C 72.078 6.924 71.342 6.878 70.593 6.878 C 47.307 6.878 15.224 50.085 0.771 106.04 L 3.556 106.04 C 8.181 97.791 12.336 89.988 16.136 82.663 C 26.257 43.031 46.873 16.002 65.187 8.842" fill="url(#linearGradient-8)"/>
      <path d="M 78.293 24.767 C 80.939 22.244 83.593 19.974 86.227 17.958 C 85.626 16.641 85.004 15.422 84.337 14.306 C 82.207 16.89 80.26 20.301 78.293 24.767" fill="#0D82CA"/>
      <path d="M 80.206 9.175 C 81.727 10.451 83.089 12.206 84.336 14.308 C 84.729 13.825 85.126 13.38 85.539 12.962 C 83.809 11.347 81.94 10.022 79.911 9.024 C 79.993 9.07 80.075 9.106 80.16 9.142 C 80.16 9.142 80.192 9.174 80.206 9.174" fill="#0D82CA"/>
      <path d="M 16.135 82.668 C 37.368 41.751 47.428 15.856 65.186 8.846 C 46.876 16.011 26.256 43.04 16.135 82.668" fill="url(#linearGradient-9)"/>
      <path d="M 85.537 12.961 C 85.124 13.383 84.732 13.825 84.335 14.307 C 85.002 15.423 85.623 16.638 86.229 17.959 C 87.014 17.358 87.795 16.789 88.572 16.233 C 87.611 15.047 86.597 13.947 85.537 12.961" fill="#127BCA"/>
      <path d="M 25.774 105.861 C 25.643 105.893 25.512 105.893 25.389 105.907 L 25.316 105.907 C 25.205 105.907 25.091 105.939 24.989 105.939 L 24.935 105.939 C 24.67 105.972 24.408 105.972 24.154 105.992 L 24.072 105.992 C 45.563 105.391 55.387 94.631 60.262 79.024 C 63.967 67.193 67.009 57.227 69.676 48.864 C 60.675 61.533 51.632 76.636 42.541 93.555 C 38.157 101.71 31.491 105.116 25.774 105.845" fill="url(#linearGradient-10)"/>
      <path d="M 25.774 105.852 C 31.491 105.124 38.157 101.722 42.541 93.563 C 51.633 76.648 60.679 61.541 69.672 48.871 C 72.944 38.602 75.643 30.742 78.293 24.759 C 60.368 41.821 42.374 70.191 25.774 105.844" fill="url(#linearGradient-11)"/>
      <path d="M 16.134 82.669 C 12.334 89.994 8.179 97.797 3.554 106.046 L 11.656 106.046 C 12.727 97.854 14.248 90.043 16.134 82.673" fill="#05A1E6"/>
      <path d="M 72.048 7.08 C 71.982 7.08 71.934 7.112 71.876 7.112 C 71.778 7.144 71.676 7.144 71.574 7.155 C 71.513 7.155 71.455 7.155 71.394 7.187 C 71.283 7.22 71.181 7.223 71.075 7.243 C 71.025 7.243 70.977 7.243 70.936 7.276 C 70.702 7.314 70.473 7.357 70.244 7.397 L 70.167 7.397 C 70.048 7.429 69.942 7.446 69.831 7.462 C 69.774 7.495 69.717 7.495 69.664 7.508 C 69.553 7.54 69.443 7.554 69.336 7.573 C 69.279 7.606 69.234 7.606 69.181 7.609 C 68.801 7.701 68.424 7.799 68.044 7.903 C 68.003 7.903 67.962 7.936 67.913 7.942 C 67.799 7.975 67.688 8.008 67.57 8.044 C 67.52 8.076 67.463 8.076 67.414 8.089 C 67.3 8.121 67.185 8.155 67.075 8.19 C 67.03 8.19 66.993 8.223 66.952 8.223 C 66.69 8.321 66.433 8.419 66.163 8.501 C 66.048 8.537 65.926 8.583 65.803 8.625 C 65.754 8.658 65.709 8.665 65.652 8.688 C 65.537 8.723 65.423 8.769 65.316 8.812 C 65.276 8.844 65.235 8.848 65.206 8.865 C 47.449 15.874 37.388 41.77 16.155 82.687 C 14.27 90.056 12.744 97.868 11.677 106.059 L 12.814 106.059 C 16.016 106.059 16.92 106.027 20.605 106.027 L 20.793 106.027 L 21.341 106.027 L 21.529 106.027 L 21.582 106.027 L 21.77 106.027 L 21.877 106.027 L 21.95 106.027 L 22.097 106.027 L 22.555 106.027 L 23.014 106.027 L 23.398 106.027 L 23.5 106.027 L 24.175 106.027 C 24.428 105.994 24.69 105.994 24.956 105.974 L 25.005 105.974 C 25.116 105.974 25.226 105.942 25.332 105.942 L 25.41 105.942 C 25.528 105.942 25.663 105.909 25.794 105.895 C 42.394 70.242 60.388 41.872 78.313 24.81 C 80.284 20.344 82.227 16.933 84.354 14.353 C 83.11 12.251 81.749 10.492 80.227 9.216 C 80.227 9.216 80.186 9.216 80.183 9.184 C 80.097 9.148 80.015 9.105 79.929 9.063 C 79.843 9.016 79.77 8.981 79.68 8.935 C 79.602 8.903 79.512 8.86 79.434 8.817 C 79.328 8.785 79.242 8.739 79.148 8.696 C 79.07 8.664 79.001 8.631 78.923 8.598 C 78.763 8.536 78.604 8.47 78.453 8.402 C 78.383 8.369 78.318 8.352 78.252 8.326 C 78.142 8.287 78.015 8.235 77.901 8.186 C 77.843 8.153 77.778 8.147 77.712 8.123 C 77.545 8.067 77.381 8.009 77.226 7.956 L 77.185 7.956 C 76.997 7.894 76.813 7.849 76.621 7.796 C 76.576 7.764 76.539 7.764 76.494 7.757 C 76.326 7.711 76.179 7.666 76.02 7.623 C 75.979 7.623 75.942 7.591 75.91 7.591 C 75.525 7.489 75.128 7.408 74.728 7.332 C 74.686 7.332 74.646 7.3 74.605 7.3 C 74.433 7.267 74.266 7.237 74.094 7.218 C 74.052 7.186 74.028 7.186 73.992 7.186 C 73.787 7.153 73.587 7.13 73.386 7.107 L 73.28 7.107 C 73.117 7.075 72.965 7.071 72.814 7.054 C 72.556 7.087 72.311 7.101 72.07 7.123" fill="url(#linearGradient-12)"/>
      <path d="M 192.889 31.351 C 188.803 44.438 185.495 55.235 182.616 64.118 C 193.825 48.691 204.867 29.286 215.382 6.891 C 203.117 10.744 196.573 19.561 192.889 31.351" fill="url(#linearGradient-13)"/>
      <path d="M 182.971 100.27 C 182.399 100.561 181.826 100.838 181.262 101.088 C 203.068 91.363 229.078 52.789 241.531 4.765 L 239.007 4.765 C 210.396 55.873 201.195 90.087 182.971 100.27" fill="url(#linearGradient-14)"/>
      <path d="M 168.732 95.976 C 173.476 90.185 177.341 80.342 182.617 64.118 C 176.531 72.477 170.405 79.663 164.275 85.523 C 164.275 85.555 164.275 85.555 164.242 85.576 C 165.58 89.584 167.048 93.121 168.72 95.975" fill="#079AE1"/>
      <path d="M 168.732 95.976 C 167.117 97.947 165.408 99.448 163.506 100.561 C 163.089 100.803 162.668 101.031 162.238 101.24 C 164.246 102.323 166.438 103.047 168.892 103.338 C 169.251 103.373 169.607 103.406 169.979 103.432 L 170.045 103.432 C 170.212 103.432 170.389 103.432 170.569 103.465 L 170.641 103.465 L 171.177 103.465 L 171.753 103.465 L 171.933 103.465 L 172.342 103.465 C 172.408 103.465 172.476 103.465 172.542 103.432 C 172.669 103.432 172.804 103.432 172.934 103.4 L 172.981 103.4 L 173.128 103.4 C 173.262 103.4 173.409 103.368 173.553 103.354 L 173.586 103.354 C 173.629 103.354 173.674 103.321 173.716 103.321 C 173.867 103.289 174.024 103.275 174.171 103.253 L 174.305 103.253 C 174.472 103.22 174.644 103.2 174.816 103.167 L 174.848 103.167 L 174.898 103.167 C 175.241 103.102 175.576 103.037 175.916 102.952 C 173.102 101.921 170.747 99.492 168.718 96.032" fill="#1969BC"/>
      <path d="M 128.53 103.465 C 130.571 103.465 132.633 103.265 134.702 102.868 C 136.616 102.52 138.534 101.988 140.456 101.318 C 142.055 102.099 143.732 102.68 145.507 103.039 C 146.885 103.321 148.316 103.465 149.817 103.465 L 128.53 103.465 Z" fill="#1E5CB3"/>
      <path d="M 149.818 103.465 C 154.856 103.465 158.847 102.868 162.238 101.24 C 164.246 102.324 166.438 103.048 168.892 103.338 C 169.251 103.374 169.607 103.407 169.979 103.433 L 170.045 103.433 C 170.212 103.433 170.389 103.433 170.569 103.465 L 170.644 103.465 L 171.18 103.465 L 149.803 103.465 L 149.818 103.465 Z" fill="#1E5CB3"/>
      <path d="M 171.193 103.465 L 171.773 103.465 L 171.953 103.465 L 172.358 103.465 C 172.427 103.465 172.492 103.465 172.558 103.432 C 172.685 103.432 172.82 103.432 172.955 103.4 L 172.998 103.4 L 173.148 103.4 C 173.282 103.4 173.43 103.368 173.57 103.355 L 173.605 103.355 C 173.648 103.355 173.69 103.322 173.733 103.322 C 173.883 103.29 174.04 103.277 174.187 103.253 C 174.236 103.253 174.275 103.253 174.327 103.221 C 174.494 103.189 174.667 103.172 174.839 103.139 L 174.871 103.139 L 174.921 103.139 C 175.264 103.074 175.599 103.008 175.939 102.923 C 176.924 103.287 177.951 103.471 179.059 103.471 L 171.199 103.504 L 171.193 103.465 Z" fill="#1D60B5"/>
      <path d="M 164.255 85.576 L 164.255 85.544 C 162.01 87.691 159.769 89.658 157.532 91.437 C 156.362 92.365 155.197 93.245 154.019 94.075 C 155.005 95.253 156.007 96.357 157.062 97.363 C 158.665 98.917 160.378 100.226 162.247 101.236 C 162.673 101.026 163.098 100.798 163.511 100.557 C 165.417 99.445 167.126 97.944 168.742 95.973 C 167.069 93.118 165.601 89.58 164.263 85.572" fill="#175FAB"/>
      <path d="M 231.016 4.765 L 220.408 4.765 L 219.353 4.765 L 218.355 4.765 L 218.316 4.765 C 217.629 4.797 216.962 4.821 216.304 4.863 C 215.993 5.53 215.674 6.197 215.367 6.867 C 204.853 29.262 193.811 48.667 182.601 64.093 C 177.33 80.317 173.461 90.161 168.717 95.952 C 170.745 99.411 173.105 101.845 175.91 102.875 C 175.992 102.843 176.058 102.843 176.131 102.826 L 176.177 102.826 C 176.226 102.826 176.279 102.793 176.332 102.793 C 176.447 102.761 176.569 102.741 176.684 102.705 C 176.758 102.673 176.819 102.669 176.893 102.646 C 176.999 102.614 177.109 102.59 177.207 102.564 C 177.273 102.532 177.338 102.521 177.404 102.508 C 177.567 102.456 177.714 102.417 177.87 102.368 C 177.944 102.335 178.021 102.308 178.103 102.289 C 178.193 102.257 178.283 102.233 178.365 102.194 C 178.459 102.162 178.553 102.145 178.635 102.109 C 178.709 102.077 178.786 102.056 178.856 102.027 C 179.039 101.962 179.22 101.906 179.404 101.834 C 179.453 101.834 179.502 101.789 179.555 101.778 C 179.665 101.732 179.78 101.696 179.89 101.647 C 179.931 101.615 179.98 101.612 180.033 101.595 C 180.418 101.434 180.815 101.271 181.211 101.092 L 181.253 101.092 C 181.817 100.843 182.389 100.564 182.958 100.274 C 201.185 90.091 210.387 55.877 238.998 4.769 L 231.007 4.769 L 231.016 4.765 Z" fill="url(#linearGradient-15)"/>
      <path d="M 72.793 7.011 C 72.839 7.011 72.879 7.011 72.924 7.043 C 73.034 7.043 73.145 7.043 73.255 7.079 L 73.366 7.079 C 73.566 7.111 73.767 7.128 73.971 7.157 C 74.008 7.157 74.041 7.157 74.073 7.19 C 74.241 7.222 74.413 7.249 74.584 7.275 C 74.622 7.275 74.671 7.307 74.711 7.307 C 75.104 7.386 75.505 7.467 75.889 7.569 C 75.926 7.569 75.963 7.601 75.996 7.601 C 76.159 7.64 76.306 7.69 76.47 7.735 C 76.519 7.735 76.556 7.768 76.601 7.775 C 76.793 7.824 76.973 7.873 77.161 7.935 C 77.169 7.935 77.181 7.935 77.202 7.968 C 77.362 8.016 77.525 8.079 77.693 8.135 C 77.759 8.167 77.82 8.181 77.881 8.197 C 77.996 8.246 78.123 8.295 78.233 8.341 C 78.299 8.341 78.364 8.386 78.433 8.41 C 78.584 8.479 78.744 8.541 78.899 8.606 C 78.981 8.638 79.051 8.675 79.128 8.704 C 79.218 8.75 79.312 8.792 79.41 8.825 C 79.492 8.864 79.582 8.907 79.66 8.943 C 79.746 8.989 79.827 9.025 79.909 9.071 C 81.938 10.068 83.807 11.398 85.537 13.009 C 86.175 12.338 86.841 11.737 87.532 11.197 C 83.75 8.514 79.464 6.985 74.519 6.985 C 73.947 6.985 73.374 7.017 72.793 7.06" fill="#7DCBEC"/>
      <path d="M 85.537 12.961 C 86.597 13.947 87.611 15.047 88.572 16.233 C 89.5 15.587 90.42 14.965 91.345 14.385 C 90.134 13.174 88.858 12.086 87.529 11.15 C 86.838 11.685 86.175 12.291 85.537 12.961" fill="#5EC5ED"/>
      <path d="M 72.792 7.01 C 73.373 6.961 73.946 6.94 74.518 6.94 C 79.462 6.94 83.748 8.47 87.531 11.149 C 91.523 8 96.349 6.899 103.051 6.899 L 70.592 6.899 C 71.34 6.899 72.072 6.944 72.792 7.01" fill="url(#linearGradient-16)"/>
      <path d="M 103.051 6.899 C 96.349 6.899 91.523 8 87.531 11.149 C 88.856 12.085 90.132 13.173 91.343 14.383 C 96.901 10.85 102.405 8.511 107.832 7.488 C 109.902 7.1 111.967 6.899 114.004 6.899 L 103.051 6.899 Z" fill="url(#linearGradient-17)"/>
      <path d="M 182.616 64.126 C 185.499 55.235 188.799 44.443 192.893 31.351 C 196.582 19.557 203.113 10.74 215.378 6.891 C 215.701 6.233 216.007 5.554 216.322 4.887 C 196.328 6.086 186.983 16.256 182.28 31.319 C 174.056 57.615 169.075 74.661 164.278 85.523 C 170.404 79.666 176.53 72.477 182.616 64.126" fill="url(#linearGradient-18)"/>
    </g>
  </g>
</svg>