<?xml version="1.0" encoding="utf-8"?>
<svg version="1.0" width="1600px" height="448px" viewBox="0 0 800 800" preserveAspectRatio="xMidYMid meet" xmlns="http://www.w3.org/2000/svg">
  <rect x="26.363" y="22.664" width="750" height="750" style="fill: rgb(123, 160, 45);"/>
  <g id="layer101" fill="#7ba02d" stroke="none" style="" transform="matrix(0.046256, 0, 0, 0.046256, 39.140263, 310.250153)">
    <path d="M5218 4170 c-310 -16 -622 -56 -838 -106 -508 -119 -742 -276 -742 -500 -1 -157 131 -288 408 -405 132 -56 372 -131 514 -160 106 -21 421 -101 417 -106 -2 -1 -59 -19 -128 -39 -68 -19 -159 -49 -201 -66 l-78 -29 -234 1 -235 1 -3 -72 -3 -71 -40 32 c-52 42 -116 74 -190 96 -81 24 -294 24 -384 0 -192 -50 -324 -169 -383 -344 -25 -75 -35 -232 -19 -314 29 -146 137 -280 279 -346 119 -54 174 -62 476 -62 l269 0 -6 -84 c-7 -97 -22 -139 -65 -182 -67 -67 -195 -96 -329 -76 -98 16 -151 40 -213 98 l-51 47 -47 -44 c-131 -123 -242 -235 -242 -245 0 -18 110 -115 171 -151 30 -18 99 -44 154 -58 232 -62 626 -36 799 52 74 38 180 148 216 225 64 137 63 135 68 681 l3 497 29 -20 c42 -30 295 -146 503 -230 l57 -24 -58 -31 c-250 -133 -345 -294 -301 -507 15 -71 71 -181 126 -245 70 -83 203 -177 358 -252 166 -81 241 -107 475 -160 281 -65 437 -82 795 -88 339 -6 483 5 714 52 115 23 130 24 697 26 318 1 585 4 592 6 8 4 12 28 12 75 l0 70 35 -30 c49 -43 109 -76 190 -103 62 -21 88 -24 220 -23 137 0 157 3 229 27 43 15 97 41 121 57 67 46 145 139 181 215 70 148 68 120 72 848 l3 657 -225 0 -225 0 -3 -582 c-4 -656 -2 -639 -80 -719 -138 -142 -390 -105 -472 71 -20 44 -21 60 -24 638 l-3 592 -229 0 -230 0 0 -784 0 -783 -82 -6 c-46 -4 -115 -7 -154 -7 l-70 0 50 53 c27 28 61 77 75 107 22 47 26 68 26 150 0 111 -17 169 -74 257 -50 76 -165 188 -244 237 -173 107 -437 212 -657 260 -244 53 -377 68 -685 73 -303 5 -504 -7 -725 -44 l-100 -16 -69 27 c-85 33 -145 75 -166 116 -14 28 -14 33 0 64 56 117 272 169 1306 311 269 37 583 91 696 119 137 35 357 112 425 148 72 38 171 127 203 182 75 128 47 275 -78 414 -83 92 -152 142 -292 211 -154 76 -227 102 -463 162 -306 78 -577 121 -932 149 -189 15 -693 20 -892 10z m982 -204 c502 -64 855 -209 944 -388 31 -63 32 -89 5 -145 -49 -101 -224 -196 -485 -262 -241 -61 -913 -152 -1134 -154 -221 -1 -633 105 -875 225 -297 149 -371 330 -194 482 160 137 553 242 974 260 171 7 653 -4 765 -18z m-2267 -1596 c68 -25 124 -82 143 -145 7 -27 14 -88 14 -137 l0 -88 -193 0 c-224 0 -275 10 -328 64 -61 63 -74 142 -36 216 41 81 105 109 249 110 73 0 110 -5 151 -20z m2561 -236 c368 -69 614 -257 666 -511 38 -183 -58 -352 -253 -443 -109 -51 -177 -68 -329 -82 -321 -30 -638 54 -816 217 -133 123 -190 233 -199 386 -11 179 57 286 235 374 157 77 461 103 696 59z" style="fill: rgb(255, 255, 255);"/>
    <path d="M2378 2183 c-3 -437 -7 -598 -16 -625 -63 -187 -325 -249 -472 -112 -87 82 -84 56 -88 727 l-3 587 -224 0 -224 0 -3 -582 c-4 -667 -1 -643 -89 -722 -60 -54 -121 -76 -208 -76 -106 1 -196 54 -242 143 -33 63 -38 163 -39 710 l0 527 -230 0 -230 0 0 -890 0 -890 225 0 224 0 3 66 3 66 37 -30 c43 -34 120 -73 198 -99 44 -14 85 -18 205 -17 136 0 157 3 223 27 81 29 156 79 201 134 l30 36 53 -45 c86 -74 147 -105 257 -134 94 -24 115 -26 244 -22 119 4 155 10 222 32 177 58 294 187 366 401 l24 70 3 653 3 652 -225 0 -225 0 -3 -587z" style="fill: rgb(255, 255, 255);"/>
    <path d="M10475 2755 c-84 -15 -186 -53 -246 -91 -24 -15 -85 -68 -135 -118 -143 -143 -185 -254 -206 -541 -13 -191 0 -424 31 -543 39 -149 118 -273 240 -374 127 -107 298 -154 530 -146 118 5 149 10 236 38 126 40 174 71 273 174 135 141 186 276 202 541 11 185 -2 424 -29 540 -31 130 -72 204 -174 311 -77 82 -102 100 -181 140 -155 77 -359 103 -541 69z m312 -441 c55 -34 105 -103 129 -177 26 -80 32 -409 9 -518 -20 -101 -34 -129 -91 -184 -107 -104 -297 -99 -392 10 -74 83 -92 164 -92 410 0 257 24 353 106 425 65 57 108 71 201 67 70 -3 89 -8 130 -33z" style="fill: rgb(255, 255, 255);"/>
    <path d="M14007 2760 c-206 -26 -357 -122 -428 -274 -48 -104 -62 -175 -57 -305 4 -99 9 -127 34 -190 41 -106 120 -189 228 -241 127 -61 194 -70 502 -70 l266 0 -7 -82 c-8 -99 -29 -152 -77 -194 -55 -48 -126 -68 -243 -68 -135 -1 -191 18 -278 90 l-69 56 -36 -33 c-101 -92 -252 -245 -252 -255 0 -19 114 -119 172 -152 216 -122 728 -122 963 2 82 43 172 135 213 218 61 124 62 136 62 851 l0 647 -225 0 -225 0 0 -76 0 -76 -40 35 c-54 46 -125 83 -191 101 -72 18 -227 26 -312 16z m364 -386 c68 -20 142 -90 157 -149 11 -41 16 -107 13 -183 l-1 -44 -217 4 c-189 3 -223 6 -252 22 -84 45 -125 137 -101 226 14 53 73 115 123 129 54 16 218 13 278 -5z" style="fill: rgb(255, 255, 255);"/>
    <path d="M12083 2735 c-180 -49 -320 -200 -352 -379 -7 -40 -11 -391 -11 -1053 l0 -993 230 0 230 0 2 978 c3 915 4 980 21 1005 34 52 60 61 194 65 l123 4 -2 192 -3 191 -190 2 c-138 1 -204 -2 -242 -12z" style="fill: rgb(255, 255, 255);"/>
    <path d="M12770 1860 l0 -890 230 0 230 0 0 890 0 890 -230 0 -230 0 0 -890z" style="fill: rgb(255, 255, 255);"/>
    <path d="M15280 1226 c-129 -29 -223 -117 -256 -239 -37 -140 6 -299 100 -370 69 -53 117 -70 208 -75 81 -4 92 -2 150 26 236 112 277 406 81 581 -82 74 -181 100 -283 77z m176 -124 c76 -39 115 -104 122 -204 4 -62 2 -74 -27 -133 -18 -35 -44 -73 -58 -85 -39 -30 -121 -52 -170 -44 -65 10 -142 61 -177 118 -52 83 -46 213 12 281 29 34 85 73 122 84 48 14 130 7 176 -17z" style="fill: rgb(255, 255, 255);"/>
    <path d="M15210 890 l0 -180 105 0 c75 0 115 4 135 15 60 31 79 121 36 172 l-24 27 24 54 c35 79 34 82 -34 82 l-58 0 -27 -55 c-15 -30 -31 -55 -37 -55 -6 0 -10 26 -10 60 l0 60 -55 0 -55 0 0 -180z m169 -49 c23 -15 5 -41 -29 -41 -25 0 -30 4 -30 25 0 19 5 25 23 25 12 0 28 -4 36 -9z" style="fill: rgb(255, 255, 255);"/>
    <path d="M12760 490 l0 -190 235 0 235 0 0 190 0 190 -235 0 -235 0 0 -190z" style="fill: rgb(255, 255, 255);"/>
  </g>
</svg>