<?xml version="1.0" encoding="utf-8"?>
<svg width="100" height="120" viewBox="0 0 91 88" xmlns="http://www.w3.org/2000/svg">
  <title>Mercurial</title>
  <defs>
    <g id="hg">
      <path d=" M 85.685,67.399 C 100.47,42.815 82.562,2.944 49.818,6.995 C 20.233,10.652 19.757,41.792 45.83,49.189 C 68.393,55.597 50.491,69.909 51.014,79.439 C 51.54,88.968 70.63,92.425 85.685,67.399 "/>
      <circle cx="31.579" cy="70.617" r="12.838"/>
      <circle cx="16.913" cy="43.476" r="8.4"/>
    </g>
  </defs>
  <g transform="matrix(1, 0, 0, 1, -4.800616, -3.20041)" style="fill: rgb(27, 27, 27);">
    <path d=" M 85.685,67.399 C 100.47,42.815 82.562,2.944 49.818,6.995 C 20.233,10.652 19.757,41.792 45.83,49.189 C 68.393,55.597 50.491,69.909 51.014,79.439 C 51.54,88.968 70.63,92.425 85.685,67.399 "/>
    <circle cx="31.579" cy="70.617" r="12.838"/>
    <circle cx="16.913" cy="43.476" r="8.4"/>
  </g>
  <g transform="matrix(1, 0, 0, 1, -4.241616, -4.197411)" style="fill: rgb(191, 191, 191);">
    <path d=" M 85.685,67.399 C 100.47,42.815 82.562,2.944 49.818,6.995 C 20.233,10.652 19.757,41.792 45.83,49.189 C 68.393,55.597 50.491,69.909 51.014,79.439 C 51.54,88.968 70.63,92.425 85.685,67.399 "/>
    <circle cx="31.579" cy="70.617" r="12.838"/>
    <circle cx="16.913" cy="43.476" r="8.4"/>
  </g>
  <path style="fill:#000000;" d="M 50.566 79.005 C 49.67 77.551 51.04 75.937 52.449 76.06 C 54.691 76.256 59.572 76.033 63.424 73.85 C 73.046 68.395 87.855 42.148 80.407 25.593 C 77.073 18.183 75.449 16.061 72.015 12.436 C 71.315 11.697 71.717 11.737 72.191 11.987 C 74.048 12.961 77.311 16.736 80.658 22.88 C 86.313 33.26 86.02 45.6 83.917 53.341 C 82.452 58.726 77.405 70.909 70.015 76.176 C 62.609 81.455 53.942 84.483 50.566 79.005 M 43.861 44.942 C 38.82 43.446 32.321 41.362 28.562 36.445 C 25.79 32.819 24.384 28.863 24.024 26.619 C 23.897 25.818 23.788 25.151 24.019 24.966 C 24.125 24.881 26.088 29.317 29.022 33.035 C 31.955 36.754 36.055 38.929 39.471 39.719 C 42.509 40.421 48.802 41.965 50.931 43.778 C 53.12 45.643 53.303 49.671 52.566 50.126 C 51.823 50.583 50.317 46.858 43.861 44.942 M 19.696 75.773 C 29.679 85.023 44.705 72.317 38.089 61.093 C 37.346 59.833 36.381 58.874 36.698 59.839 C 38.813 66.293 36.859 71.398 33.213 74.028 C 29.638 76.608 24.725 77.039 20.791 75 C 19.636 74.401 19.157 75.274 19.696 75.773 M 8.05 45.665 C 8.102 46.259 8.914 47.021 10.191 47.371 C 11.288 47.672 14.116 48.44 17.749 46.147 C 21.381 43.855 21.8 37.722 20.149 35.918 C 19.638 35.004 18.973 34.339 19.502 35.797 C 20.838 39.479 18.242 42.923 16.003 44.518 C 13.766 46.113 10.927 45.358 9.768 45.005 C 8.61 44.651 7.998 45.052 8.05 45.665"/>
  <path style="fill:#ffffff;" d="M 54.256 79.715 C 54.159 80.869 55.484 81.095 57.268 80.828 C 59.555 80.485 61.489 80.228 64.121 78.909 C 67.688 77.121 71.298 74.564 73.941 71.114 C 81.83 60.822 84.623 48.645 84.193 46.894 C 84.049 48.34 82.145 55.934 77.79 62.779 C 72.196 71.573 68.14 76.256 58.786 78.527 C 56.182 79.159 54.384 78.196 54.256 79.715 M 33.509 39.695 C 34.574 40.599 36.757 41.803 41.052 43.212 C 46.24 44.913 48.766 46.388 49.824 47.094 C 50.945 47.845 51.655 49.52 51.725 48.032 C 51.799 46.543 50.881 45.263 48.833 44.583 C 47.447 44.123 45.116 43.028 42.881 42.587 C 41.445 42.303 39.109 41.741 37.106 41.127 C 36.008 40.79 34.889 40.199 33.509 39.695 M 27.529 77.673 C 28.8 77.406 36.193 75.491 37.929 69.411 C 38.47 67.515 38.567 67.896 38.414 68.923 C 37.634 74.166 32.679 78.033 28.462 78.177 C 27.606 78.265 26.483 77.892 27.529 77.673 M 12.738 46.489 C 13.071 46.189 14.757 46.312 16.279 45.493 C 17.8 44.675 19.607 42.882 19.93 40.333 C 20.12 38.836 20.177 39.212 20.253 40.027 C 20.017 44.264 16.12 46.605 13.892 46.914 C 13.29 46.997 12.232 46.946 12.738 46.489"/>
  <path style="fill:#999999;" d="M 79.395 47.231 C 85.69 29.086 72.517 1.683 45.866 4.98 C 21.786 7.957 21.397 33.302 42.619 39.324 C 66.658 42.963 52.183 61.097 50.13 70.242 C 48.289 78.439 69.556 79.788 79.395 47.231 M 19.179 73.165 C 20.686 73.191 21.598 73.403 23.125 74.474 C 26.143 75.728 31.691 74.934 34.252 71.561 C 36.814 68.189 36.898 63.542 35.922 60.734 C 33.535 53.863 23.391 53.984 18.86 59.689 C 13.958 66.06 17.671 73.14 19.179 73.165 M 5.714 41.321 C 6.014 42.268 6.782 43.649 8.404 43.879 C 10.569 44.186 11.012 45.165 13.569 44.657 C 16.126 44.149 18.064 42.054 18.839 39.736 C 19.727 36.529 18.398 34.874 16.397 33.395 C 14.396 31.917 9.995 32.076 7.368 34.47 C 5.501 36.171 4.982 39.017 5.714 41.321"/>
  <path style="fill:#f3f3f3;" d="M 62.923 61.404 C 56.411 60.599 47.04 75.302 55.876 73.58 C 64.711 71.859 47.04 75.302 55.876 73.58 C 60.123 72.95 63.642 71.45 66.791 67.855 C 70.898 63.168 77.033 53.045 78.808 46.504 C 80.302 40.989 79.551 32.444 78.01 40.472 C 76.43 48.712 69.436 62.21 62.923 61.404 M 28.969 73.655 C 30.646 73.216 35.781 71.127 34.816 63.661 C 34.328 59.88 32.266 68.354 28.446 69.622 C 22.66 71.542 23.31 75.137 28.969 73.655 M 14.217 43.442 C 16.182 42.928 18.78 40.251 17.49 38.207 C 15.899 35.689 11.465 37.844 11.315 40.648 C 11.165 43.453 12.135 43.987 14.217 43.442"/>
</svg>