<?xml version="1.0" encoding="utf-8"?>
<svg enable-background="new 0 0 480 766.444" height="766.444px" id="Ebene_1" version="1.1" viewBox="0 0 480 400" width="480px" x="0px" y="0px" xmlns="http://www.w3.org/2000/svg" xmlns:xlink="http://www.w3.org/1999/xlink">
  <defs id="defs36">
    <linearGradient id="linearGradient5584">
      <stop id="stop5586" offset="0" style="stop-color:#ffffff;stop-opacity:1;"/>
      <stop id="stop5588" offset="1" style="stop-color:#ffffff;stop-opacity:0;"/>
    </linearGradient>
    <linearGradient id="linearGradient15014" gradientUnits="userSpaceOnUse" x1="160.05504" y1="251.42882" x2="273.29489" y2="493.86542" xlink:href="#linearGradient5584"/>
  </defs>
  <g id="g15016" transform="matrix(1, 0, 0, 1, -0.814244, -249.158646)">
    <g transform="matrix(0.776109, 0, 0, 0.776109, 969.352478, 378.213348)" id="g9502">
      <g id="g5592" transform="matrix(1.154243, 0, 0, 1.154243, -1342.812622, -523.110107)">
        <path id="rect5414" d="M 128.54014,337.42496 L 567.45496,337.42496 L 567.45496,727.0959 L 128.54014,727.0959 L 128.54014,337.42496 z" style="fill:#729fcf;fill-opacity:1;stroke:#2e3436;stroke-width:19.52187347;stroke-linecap:round;stroke-linejoin:round;stroke-miterlimit:4;stroke-opacity:1"/>
        <g id="g5457">
          <path style="fill:#ffffff;fill-opacity:1;fill-rule:evenodd;stroke:none;stroke-width:1px;stroke-linecap:butt;stroke-linejoin:miter;stroke-opacity:1" d="M 539.28571,362.36218 C 402.232,393.07139 265.31626,421.51462 150.71429,470.93361 L 152.85715,540.93361 C 160.14857,548.22503 443.37456,488.33842 459.28572,528.79076 C 475.19688,569.2431 160.1596,626.20528 153.57143,622.36218 L 155.71429,648.07647 C 293.74568,621.12259 428.55263,591.68837 542.14286,545.93361 L 543.57143,463.79075 C 433.24627,473.11061 235.05348,502.32141 255.71428,475.21932 C 276.37508,448.11724 356.97582,421.21867 543.57143,388.07647 L 539.28571,362.36218 z" id="path5441"/>
          <g id="g5451" transform="translate(-60.714286,5.7142857)">
            <path transform="matrix(0.8,0,0,0.8,184,167.18672)" d="M 66.42857,489.50504 A 7.1428571,7.1428571 0 1 1 52.142856,489.50504 A 7.1428571,7.1428571 0 1 1 66.42857,489.50504 z" id="path5443" style="opacity:1;fill:#ffffff;fill-opacity:1;stroke:none;stroke-width:18.35099983;stroke-linecap:round;stroke-linejoin:miter;stroke-miterlimit:4;stroke-dasharray:none;stroke-opacity:1"/>
            <path style="opacity:1;fill:#ffffff;fill-opacity:1;stroke:none;stroke-width:18.35099983;stroke-linecap:round;stroke-linejoin:miter;stroke-miterlimit:4;stroke-dasharray:none;stroke-opacity:1" id="path5445" d="M 66.42857,489.50504 A 7.1428571,7.1428571 0 1 1 52.142856,489.50504 A 7.1428571,7.1428571 0 1 1 66.42857,489.50504 z" transform="matrix(0.8,0,0,0.8,200,167.18672)"/>
            <path style="opacity:1;fill:#ffffff;fill-opacity:1;stroke:none;stroke-width:18.35099983;stroke-linecap:round;stroke-linejoin:miter;stroke-miterlimit:4;stroke-dasharray:none;stroke-opacity:1" id="path5447" d="M 66.42857,489.50504 A 7.1428571,7.1428571 0 1 1 52.142856,489.50504 A 7.1428571,7.1428571 0 1 1 66.42857,489.50504 z" transform="matrix(0.8,0,0,0.8,184,193.18672)"/>
            <path transform="matrix(0.8,0,0,0.8,200,193.18672)" d="M 66.42857,489.50504 A 7.1428571,7.1428571 0 1 1 52.142856,489.50504 A 7.1428571,7.1428571 0 1 1 66.42857,489.50504 z" id="path5449" style="opacity:1;fill:#ffffff;fill-opacity:1;stroke:none;stroke-width:18.35099983;stroke-linecap:round;stroke-linejoin:miter;stroke-miterlimit:4;stroke-dasharray:none;stroke-opacity:1"/>
          </g>
        </g>
        <rect y="646.64789" x="152.14285" height="47.857143" width="390.71429" id="rect5465" style="opacity:1;fill:#ffffff;fill-opacity:1;stroke:none;stroke-width:18.35099983;stroke-linecap:round;stroke-linejoin:miter;stroke-miterlimit:4;stroke-dasharray:none;stroke-opacity:1"/>
        <g transform="matrix(0.9867462,0,0,0.8622183,5.9865743,-66.01394)" id="g5572">
          <path style="font-size:13px;font-style:normal;font-weight:normal;fill:#729fcf;fill-opacity:1;stroke:#729fcf;stroke-width:2.0999999;stroke-linecap:butt;stroke-linejoin:round;stroke-miterlimit:4;stroke-dasharray:none;stroke-opacity:1;font-family:Bitstream Vera Sans" d="M 180.30299,839.19446 L 180.30299,843.47548 C 178.63692,842.6787 177.06504,842.08473 175.58735,841.69353 C 174.10962,841.3024 172.68261,841.10685 171.30633,841.10681 C 168.9159,841.10685 167.06876,841.57042 165.76491,842.4976 C 164.47552,843.42481 163.83084,844.74316 163.83084,846.45264 C 163.83084,847.88691 164.25821,848.97349 165.11298,849.71231 C 165.98221,850.43668 167.61928,851.02343 170.0242,851.47252 L 172.67538,852.01579 C 175.94951,852.63876 178.36166,853.73982 179.91183,855.3189 C 181.47644,856.88357 182.25876,858.98425 182.25878,861.62091 C 182.25876,864.76469 181.20118,867.14787 179.08605,868.77043 C 176.98536,870.39302 173.89955,871.20432 169.82862,871.20432 C 168.29294,871.20432 166.65587,871.03048 164.9174,870.68279 C 163.19339,870.33506 161.4042,869.82079 159.54982,869.13986 L 159.54982,864.61981 C 161.33176,865.61943 163.07749,866.3728 164.78701,866.87985 C 166.49651,867.3869 168.17704,867.64045 169.82862,867.64045 C 172.33492,867.64045 174.26898,867.14787 175.63081,866.1627 C 176.9926,865.17759 177.67351,863.77229 177.67353,861.94689 C 177.67351,860.3533 177.18094,859.10739 176.19582,858.20914 C 175.22514,857.31096 173.62429,856.63728 171.39325,856.18816 L 168.72033,855.66662 C 165.44618,855.01469 163.07749,853.99333 161.61427,852.60254 C 160.15105,851.21176 159.41943,849.2777 159.41944,846.80033 C 159.41943,843.93187 160.42631,841.67182 162.44005,840.02023 C 164.46828,838.36871 167.25709,837.54294 170.80651,837.5429 C 172.32767,837.54294 173.87782,837.68056 175.45696,837.95581 C 177.03606,838.23109 178.6514,838.644 180.30299,839.19446" id="flowRoot5476"/>
          <path style="font-size:13px;font-style:normal;font-weight:normal;fill:#729fcf;fill-opacity:1;stroke:#729fcf;stroke-width:2.0999999;stroke-linecap:butt;stroke-linejoin:round;stroke-miterlimit:4;stroke-dasharray:none;stroke-opacity:1;font-family:Bitstream Vera Sans" d="M 198.92829,838.05307 L 203.41797,838.05307 L 203.41797,858.11279 C 203.41794,861.65146 204.05935,864.20225 205.3421,865.76513 C 206.62484,867.3133 208.7038,868.08739 211.57897,868.08739 C 214.43937,868.08739 216.51094,867.3133 217.79373,865.76513 C 219.07647,864.20225 219.71785,861.65146 219.71788,858.11279 L 219.71788,838.05307 L 224.20753,838.05307 L 224.20753,858.6657 C 224.20753,862.97107 223.13854,866.22222 221.00063,868.41912 C 218.87742,870.61602 215.73689,871.71449 211.57897,871.71449 C 207.40632,871.71449 204.25101,870.61602 202.1131,868.41912 C 199.98989,866.22222 198.92829,862.97107 198.92829,858.6657 L 198.92829,838.05307" id="flowRoot5484"/>
          <path style="font-size:13px;font-style:normal;font-weight:normal;fill:#729fcf;fill-opacity:1;stroke:#729fcf;stroke-width:2.0999999;stroke-linecap:butt;stroke-linejoin:round;stroke-miterlimit:4;stroke-dasharray:none;stroke-opacity:1;font-family:Bitstream Vera Sans" d="M 246.13584,855.3225 L 246.13584,867.65526 L 253.44079,867.65526 C 255.89078,867.65526 257.70199,867.15174 258.8744,866.14468 C 260.06179,865.12259 260.65553,863.5669 260.65556,861.4776 C 260.65553,859.37332 260.06179,857.82513 258.8744,856.83308 C 257.70199,855.82605 255.89078,855.3225 253.44079,855.3225 L 246.13584,855.3225 M 246.13584,841.47916 L 246.13584,851.62492 L 252.87711,851.62492 C 255.10165,851.62495 256.75506,851.21162 257.83728,850.38488 C 258.9345,849.54319 259.48312,848.26558 259.48316,846.55204 C 259.48312,844.8536 258.9345,843.58348 257.83728,842.74175 C 256.75506,841.90006 255.10165,841.4792 252.87711,841.47916 L 246.13584,841.47916 M 241.5815,837.7365 L 253.21532,837.7365 C 256.68739,837.73654 259.36289,838.458 261.24177,839.90092 C 263.12057,841.34391 264.05998,843.39562 264.06001,846.05602 C 264.05998,848.11526 263.57902,849.75364 262.61706,850.97108 C 261.65506,852.1886 260.24219,852.94767 258.37838,853.24827 C 260.61795,853.72927 262.354,854.73633 263.58655,856.26944 C 264.83407,857.78755 265.45786,859.68894 265.45789,861.97363 C 265.45786,864.97977 264.43577,867.30203 262.39162,868.94037 C 260.3474,870.57875 257.43894,871.39792 253.66623,871.39792 L 241.5815,871.39792 L 241.5815,837.7365" id="flowRoot5492"/>
          <path style="font-size:13px;font-style:normal;font-weight:normal;fill:#888a85;fill-opacity:1;stroke:#888a85;stroke-width:2.0999999;stroke-linecap:butt;stroke-linejoin:round;stroke-miterlimit:4;stroke-dasharray:none;stroke-opacity:1;font-family:Bitstream Vera Sans" d="M 290.00375,871.4253 L 277.15242,837.76388 L 281.90968,837.76388 L 292.57401,866.10439 L 303.26089,837.76388 L 307.99559,837.76388 L 295.16681,871.4253 L 290.00375,871.4253" id="flowRoot5500"/>
          <path style="font-size:13px;font-style:normal;font-weight:normal;fill:#888a85;fill-opacity:1;stroke:#888a85;stroke-width:2.0999999;stroke-linecap:butt;stroke-linejoin:round;stroke-miterlimit:4;stroke-dasharray:none;stroke-opacity:1;font-family:Bitstream Vera Sans" d="M 323.44239,837.69126 L 344.72596,837.69126 L 344.72596,841.5241 L 327.99671,841.5241 L 327.99671,851.48949 L 344.02703,851.48949 L 344.02703,855.32237 L 327.99671,855.32237 L 327.99671,867.51984 L 345.13179,867.51984 L 345.13179,871.35268 L 323.44239,871.35268 L 323.44239,837.69126" id="flowRoot5508"/>
          <path style="font-size:13px;font-style:normal;font-weight:normal;fill:#888a85;fill-opacity:1;stroke:#888a85;stroke-width:2.0999999;stroke-linecap:butt;stroke-linejoin:round;stroke-miterlimit:4;stroke-dasharray:none;stroke-opacity:1;font-family:Bitstream Vera Sans" d="M 379.90223,855.88107 C 380.8792,856.21176 381.82614,856.91823 382.74304,858.00041 C 383.67492,859.08264 384.60683,860.5707 385.53877,862.46457 L 390.16073,871.66339 L 385.26821,871.66339 L 380.96189,863.02822 C 379.8496,860.77359 378.76738,859.27803 377.71525,858.54151 C 376.67811,857.80503 375.2577,857.43677 373.45402,857.43677 L 368.49386,857.43677 L 368.49386,871.66339 L 363.93954,871.66339 L 363.93954,838.00197 L 374.22059,838.00197 C 378.06845,838.00201 380.93933,838.80616 382.83323,840.41441 C 384.72708,842.02275 385.67401,844.45021 385.67404,847.69681 C 385.67401,849.81619 385.178,851.57477 384.18599,852.97261 C 383.20897,854.37049 381.78105,855.33998 379.90223,855.88107 M 368.49386,841.74463 L 368.49386,853.69411 L 374.22059,853.69411 C 376.41507,853.69411 378.06845,853.19059 379.18075,852.18349 C 380.30803,851.16143 380.87169,849.66587 380.87171,847.69681 C 380.87169,845.72783 380.30803,844.24729 379.18075,843.25521 C 378.06845,842.24818 376.41507,841.74467 374.22059,841.74463 L 368.49386,841.74463" id="flowRoot5516"/>
          <path style="font-size:13px;font-style:normal;font-weight:normal;fill:#888a85;fill-opacity:1;stroke:#888a85;stroke-width:2.0999999;stroke-linecap:butt;stroke-linejoin:round;stroke-miterlimit:4;stroke-dasharray:none;stroke-opacity:1;font-family:Bitstream Vera Sans" d="M 424.65862,839.27836 L 424.65862,843.55938 C 422.99255,842.7626 421.42066,842.16863 419.94298,841.77743 C 418.46524,841.3863 417.03826,841.19075 415.66196,841.19071 C 413.27155,841.19075 411.42441,841.65432 410.12055,842.5815 C 408.83116,843.50871 408.18649,844.82706 408.18649,846.53654 C 408.18649,847.97081 408.61384,849.05739 409.46861,849.79621 C 410.33783,850.52058 411.97491,851.10733 414.37983,851.55642 L 417.03101,852.09969 C 420.30515,852.72266 422.7173,853.82372 424.26745,855.4028 C 425.83208,856.96747 426.61438,859.06815 426.61442,861.70481 C 426.61438,864.84859 425.5568,867.23177 423.44167,868.85433 C 421.34099,870.47692 418.25517,871.28822 414.18425,871.28822 C 412.64858,871.28822 411.01151,871.11438 409.27303,870.76669 C 407.54903,870.41896 405.75982,869.90469 403.90546,869.22376 L 403.90546,864.70371 C 405.68741,865.70333 407.43311,866.4567 409.14263,866.96375 C 410.85214,867.4708 412.53269,867.72435 414.18425,867.72435 C 416.69054,867.72435 418.6246,867.23177 419.98646,866.2466 C 421.34825,865.26149 422.02915,863.85619 422.02915,862.03079 C 422.02915,860.4372 421.53658,859.19129 420.55144,858.29304 C 419.58078,857.39486 417.97993,856.72118 415.74888,856.27206 L 413.07597,855.75052 C 409.80182,855.09859 407.43311,854.07723 405.96992,852.68644 C 404.50669,851.29566 403.77506,849.3616 403.77506,846.88423 C 403.77506,844.01577 404.78194,841.75572 406.7957,840.10413 C 408.8239,838.45261 411.61274,837.62684 415.16216,837.6268 C 416.68332,837.62684 418.23347,837.76446 419.81258,838.03971 C 421.3917,838.31499 423.00703,838.7279 424.65862,839.27836" id="flowRoot5524"/>
          <path style="font-size:13px;font-style:normal;font-weight:normal;fill:#888a85;fill-opacity:1;stroke:#888a85;stroke-width:2.0999999;stroke-linecap:butt;stroke-linejoin:round;stroke-miterlimit:4;stroke-dasharray:none;stroke-opacity:1;font-family:Bitstream Vera Sans" d="M 443.28665,837.69061 L 447.84099,837.69061 L 447.84099,871.35203 L 443.28665,871.35203 L 443.28665,837.69061" id="flowRoot5532"/>
          <path style="font-size:13px;font-style:normal;font-weight:normal;fill:#888a85;fill-opacity:1;stroke:#888a85;stroke-width:2.0999999;stroke-linecap:butt;stroke-linejoin:round;stroke-miterlimit:4;stroke-dasharray:none;stroke-opacity:1;font-family:Bitstream Vera Sans" d="M 477.50042,841.15696 C 474.31316,841.157 471.77791,842.34494 469.89455,844.72084 C 468.02567,847.0968 467.09123,850.33472 467.09123,854.43465 C 467.09123,858.52009 468.02567,861.75076 469.89455,864.12669 C 471.77791,866.50261 474.31316,867.6906 477.50042,867.6906 C 480.68761,867.6906 483.20842,866.50261 485.06282,864.12669 C 486.93166,861.75076 487.8661,858.52009 487.86613,854.43465 C 487.8661,850.33472 486.93166,847.0968 485.06282,844.72084 C 483.20842,842.34494 480.68761,841.157 477.50042,841.15696 M 477.50042,837.59305 C 482.04944,837.59309 485.68575,839.1215 488.4094,842.17832 C 491.13302,845.2207 492.49481,849.30611 492.49485,854.43465 C 492.49481,859.54867 491.13302,863.63412 488.4094,866.69094 C 485.68575,869.73332 482.04944,871.25447 477.50042,871.25447 C 472.93689,871.25447 469.28606,869.73332 466.54796,866.69094 C 463.82435,863.6486 462.46252,859.56319 462.46252,854.43465 C 462.46252,849.30611 463.82435,845.2207 466.54796,842.17832 C 469.28606,839.1215 472.93689,837.59309 477.50042,837.59305" id="flowRoot5540"/>
          <path style="font-size:13px;font-style:normal;font-weight:normal;fill:#888a85;fill-opacity:1;stroke:#888a85;stroke-width:2.0999999;stroke-linecap:butt;stroke-linejoin:round;stroke-miterlimit:4;stroke-dasharray:none;stroke-opacity:1;font-family:Bitstream Vera Sans" d="M 509.08921,838.04487 L 515.22177,838.04487 L 530.14733,866.20502 L 530.14733,838.04487 L 534.56638,838.04487 L 534.56638,871.70629 L 528.43382,871.70629 L 513.50826,843.54614 L 513.50826,871.70629 L 509.08921,871.70629 L 509.08921,838.04487" id="flowRoot5548"/>
        </g>
        <path id="path5417" d="M 147.59256,358.81339 C 147.59256,475.15164 147.59256,591.4899 147.59256,707.82815 C 281.19403,707.82815 414.79553,707.82815 548.39699,707.82815 C 548.39699,590.77685 548.39699,473.72554 548.39699,356.67424 C 414.79553,356.67424 281.19403,356.67424 147.59256,356.67424 L 147.59256,357.74382 L 147.59256,358.81339 z" style="fill:url(#linearGradient15014);fill-opacity:1;stroke:#d3d7cf;stroke-width:19.52175713;stroke-linecap:round;stroke-linejoin:miter;stroke-miterlimit:4;stroke-dasharray:none;stroke-opacity:1"/>
      </g>
    </g>
  </g>
</svg>