<?xml version="1.0" encoding="utf-8"?>
<svg version="1.0" width="196.000000pt" height="196.000000pt" viewBox="0 0 196.000000 196.000000" preserveAspectRatio="xMidYMid meet" xmlns="http://www.w3.org/2000/svg">
  <g transform="translate(0.000000,196.000000) scale(0.100000,-0.100000)" fill="#000000" stroke="none">
    <path d="M558 1693 l-408 -235 0 -478 0 -478 408 -236 c225 -130 415 -236 423 -236 8 0 197 105 419 234 l405 234 0 482 0 482 -405 233 c-223 129 -412 234 -420 234 -8 0 -198 -106 -422 -236z m380 -60 l-3 -177 -169 -98 c-93 -54 -174 -98 -180 -98 -15 1 -298 164 -300 174 -1 8 623 373 642 375 10 1 12 -37 10 -176z m427 -11 c171 -99 310 -184 309 -188 -1 -10 -283 -174 -299 -174 -6 0 -87 44 -180 99 l-170 98 -3 178 c-2 166 -1 177 15 172 10 -2 158 -86 328 -185z m-83 -411 c6 -5 -253 -164 -294 -179 -7 -3 -247 127 -301 163 -16 11 1 24 138 103 l157 90 146 -85 c81 -47 150 -88 154 -92z m-887 60 l150 -87 0 -205 0 -204 -150 -87 c-82 -48 -153 -88 -157 -88 -5 0 -8 171 -8 380 0 209 3 380 8 380 4 -1 75 -40 157 -89z m1335 -291 c0 -209 -2 -380 -4 -380 -3 0 -72 39 -155 86 l-151 86 0 207 0 207 148 86 c81 47 150 87 155 87 4 1 7 -170 7 -379z m-899 37 l109 -62 0 -177 c0 -98 -3 -178 -6 -178 -4 0 -73 39 -155 86 l-149 86 0 180 0 180 47 -26 c25 -15 95 -54 154 -89z m507 -64 l-3 -178 -150 -87 c-82 -48 -153 -88 -157 -88 -5 0 -8 80 -8 178 l0 177 148 87 c81 47 153 87 160 87 10 1 12 -38 10 -176z m-580 -349 c92 -52 170 -99 175 -103 4 -4 6 -87 5 -184 l-3 -176 -320 185 c-176 102 -324 189 -328 193 -7 7 275 179 296 180 4 1 83 -42 175 -95z m780 7 c78 -46 142 -86 142 -89 0 -6 -407 -243 -612 -357 l-48 -27 0 180 0 180 173 101 c94 55 179 99 188 97 9 -2 79 -40 157 -85z" style="fill: rgb(52, 130, 194);"/>
  </g>
</svg>