<?xml version="1.0" encoding="utf-8"?>
<svg viewBox="34.924 351.353 548.489 159.86" xmlns="http://www.w3.org/2000/svg">
  <path d="" style="fill: none; stroke-width: 3; stroke-linecap: round; stroke-linejoin: round; stroke: rgb(51, 51, 51);"/>
  <path d="M 125.605 422.181 C 136.715 418.259 136.055 427.698 134.081 437.565 C 133.912 438.41 133.069 446.668 132.198 446.668 C 131.383 446.668 133.334 436.509 133.453 435.995 C 135.117 428.785 140.264 407.944 148.209 403.973 C 152.379 401.888 150.39 423.387 150.093 425.319 C 149.867 426.785 149.357 428.272 149.151 429.716 C 149.017 430.652 148.837 433.487 148.837 432.542 C 148.837 427.039 153.398 420.047 156.371 415.587 C 156.576 415.28 162.553 406.819 162.964 408.052 C 165.825 416.634 160.248 431.745 158.883 440.388 C 158.859 440.543 157.627 448.552 157.627 448.552 C 157.627 448.552 158.194 443.775 158.255 443.53" style="fill: none; stroke-width: 3; stroke-linecap: round; stroke-linejoin: round; stroke: rgb(51, 51, 51);"/>
  <path d="M 158.255 447.294 L 158.255 447.294 C 155.829 448.104 160.988 455.44 163.278 452.005 C 166.435 447.271 165.883 438.987 167.674 433.168 C 169.306 427.863 172.674 422.931 175.836 418.414 C 178.029 415.28 180.855 412.348 183.999 410.25 C 184.538 409.892 188.08 408.681 188.08 408.681 C 188.08 408.681 177.852 415.456 177.092 416.216 C 171.521 421.785 161.447 439.624 167.674 447.923 C 170.477 451.663 174.501 448.112 176.464 445.413 C 181.782 438.1 185.701 429.018 188.08 420.297 C 188.223 419.775 190.198 410.879 189.65 410.879 C 186.862 410.879 185.442 422.689 185.254 424.065 C 184.356 430.651 181.619 441.574 186.196 447.294 C 189.738 451.724 198.754 444.815 198.754 441.017" style="fill: none; stroke-width: 3; stroke-linecap: round; stroke-linejoin: round; stroke: rgb(51, 51, 51);"/>
  <path d="M 192.789 448.237 C 201.161 442.328 204.541 431.413 207.23 421.552 C 207.66 419.978 210.363 412.129 208.8 410.565 C 207.247 409.013 201.696 415.194 202.521 416.844 C 204.754 421.31 212.253 409.56 212.253 419.354 C 212.253 420.716 212.377 422.082 212.253 423.435 C 211.688 429.655 208.966 435.551 207.858 441.646 C 207.734 442.328 205.848 447.483 206.288 447.923 C 211.505 453.142 222.3 454.143 222.3 445.725" style="fill: none; stroke-width: 3; stroke-linecap: round; stroke-linejoin: round; stroke: rgb(51, 51, 51);"/>
  <path d="M 222.3 446.668 C 226.345 437.841 229.539 428.482 230.148 418.728 C 230.276 416.685 230.233 403.573 229.834 403.97 C 222.611 411.194 222.3 427.379 222.3 436.935 C 222.3 442.91 224.75 449.241 229.834 444.155" style="fill: none; stroke-width: 3; stroke-linecap: round; stroke-linejoin: round; stroke: rgb(51, 51, 51);"/>
  <path d="M 229.52 444.155 C 234.312 439.363 239.162 433.845 240.822 427.203 C 240.915 426.832 242.705 420.297 242.705 420.297 C 242.705 420.297 241.803 425.475 241.764 425.634 C 240.608 430.254 237.685 438.198 239.252 442.901 C 240.994 448.125 249.893 449.594 251.81 443.841" style="fill: none; stroke-width: 3; stroke-linecap: round; stroke-linejoin: round; stroke: rgb(51, 51, 51);"/>
  <path d="M 251.182 444.785 C 256.332 438.164 258.652 433.742 260.601 425.948 C 261.165 423.693 261.229 420.409 261.229 418.099 C 261.229 417.504 261.385 413.861 261.542 414.017 C 261.673 414.147 259.671 419.646 259.345 420.297 C 258.705 421.577 259.031 431.914 259.031 431.914 C 259.031 431.914 259.51 428.116 259.973 426.263 C 260.963 422.301 263.796 418.185 267.821 416.845 C 270.552 415.932 271.275 421.246 271.275 422.81 C 271.275 429.435 268.067 437.293 269.705 443.844 C 271.947 452.81 288.228 451.28 288.228 442.901" style="fill: none; stroke-width: 3; stroke-linecap: round; stroke-linejoin: round; stroke: rgb(51, 51, 51);"/>
  <path d="M 215.706 413.703 C 221.354 413.19 227.027 412.685 232.659 413.389 C 233.082 413.444 237.368 413.703 237.368 413.703 C 237.368 413.703 235.833 413.72 235.171 413.389" style="fill: none; stroke-width: 3; stroke-linecap: round; stroke-linejoin: round; stroke: rgb(51, 51, 51);"/>
  <path d="M 244.647 412.405 C 243.058 414.108 241.366 415.647 239.881 417.522 C 239.792 417.633 245.332 420.771 247.031 418.452 C 250.317 413.961 243.625 407.711 243.625 414.729" style="fill: none; stroke-width: 3; stroke-linecap: round; stroke-linejoin: round; stroke: rgb(51, 51, 51);"/>
  <path d="M 332.808 438.819 C 323.863 439.267 318.064 441.729 310.518 446.039 C 309.437 446.659 303.225 450.048 305.495 452.319 C 311.316 458.142 324.413 450.819 326.529 444.47 C 328.699 437.961 320.178 432.155 316.483 428.458 C 312.115 424.091 310.172 419.199 311.46 412.763 C 312.485 407.634 325.253 398.517 330.61 402.087 C 334.108 404.419 334.067 408.987 332.494 412.134 C 330.483 416.155 328.727 409.888 328.727 411.819" style="fill: none; stroke-width: 3; stroke-linecap: round; stroke-linejoin: round; stroke: rgb(51, 51, 51);"/>
  <path d="M 345.051 431.914 C 342.633 432.259 339.785 431.703 337.831 433.168 C 332.139 437.436 329.59 450.199 337.831 452.948 C 346.958 455.991 355.501 440.341 352.9 432.542 C 351.579 428.578 343.2 434.655 345.679 436.307 C 350.532 439.543 358.337 425.207 362.946 434.423" style="fill: none; stroke-width: 3; stroke-linecap: round; stroke-linejoin: round; stroke: rgb(51, 51, 51);"/>
  <path d="M 362.319 433.168 C 364.145 438.126 365.033 441.552 362.632 446.354 C 362.408 446.802 359.807 452.004 359.807 452.004 C 359.807 452.004 362.67 446.906 362.946 446.354 C 364.105 444.038 368.404 426.616 373.934 428.458 C 378.865 430.104 376.132 443.354 376.132 446.983 C 376.132 449.914 380.213 452.263 380.213 448.866" style="fill: none; stroke-width: 3; stroke-linecap: round; stroke-linejoin: round; stroke: rgb(51, 51, 51);"/>
  <path d="M 378.016 451.065 C 386.676 446.544 391.028 442.664 394.969 433.797 C 395.281 433.094 398.502 426.97 397.48 425.948 C 395.367 423.836 391.62 426.216 389.946 427.517 C 386.529 430.176 379.401 443.245 383.039 447.611 C 385.262 450.28 397.358 449.876 395.911 446.983 C 403.05 444.042 407.331 437.72 412.864 430.344 C 413.43 429.587 419.014 419.733 413.491 422.496 C 412.354 423.064 410.696 425.694 411.294 426.889 C 411.906 428.116 414.902 426.723 415.375 429.087 C 416.912 436.772 414.125 449.176 408.468 454.832 C 403.445 459.854 396.076 452.781 401.562 447.297 C 409.539 439.319 422.17 436.419 430.131 428.461 C 434.381 422.306 432.151 419.708 429.503 425.005 C 428.467 427.078 432.345 428.56 432.642 430.344 C 433.734 436.896 432.044 445.749 428.247 451.065 C 426.077 454.1 416.715 457.512 414.433 452.948 C 413.305 450.69 416.395 448.621 417.573 447.297 C 422.45 441.81 430.857 437.66 437.037 433.797 C 439.101 432.508 443.63 433.091 443.63 430.656" style="fill: none; stroke-width: 3; stroke-linecap: round; stroke-linejoin: round; stroke: rgb(51, 51, 51);"/>
  <path d="M 441.119 434.423 C 443.882 432.871 445.793 431.931 448.339 430.656 C 449.721 429.966 459.955 427.203 459.955 427.203 C 459.955 427.203 453.189 428.444 452.421 428.772 C 446.456 431.331 433.734 439.664 437.037 447.923 C 437.889 450.055 440.738 450.534 442.688 450.75 C 451.802 451.763 454.233 444.612 457.758 437.565 C 458.506 436.065 461.484 430.435 458.385 429.401 C 455.976 428.599 452.163 431.142 453.048 433.797 C 454.404 437.862 461.496 432.103 464.036 433.797 C 466.624 435.522 464.978 448.634 464.978 444.785" style="fill: none; stroke-width: 3; stroke-linecap: round; stroke-linejoin: round; stroke: rgb(51, 51, 51);"/>
  <path d="M 466.234 437.25 C 466.234 439.918 466.587 442.333 465.606 444.785 C 458.082 463.595 470.24 433.281 472.827 429.401 C 473.532 428.345 477.527 424.53 479.106 425.319 C 480.378 425.957 479.734 429.879 479.734 430.97 C 479.734 435.384 476.128 444.482 478.164 448.552 C 480.348 452.918 494.489 444.163 494.489 443.216" style="fill: none; stroke-width: 3; stroke-linecap: round; stroke-linejoin: round; stroke: rgb(51, 51, 51);"/>
  <path d="M 69.409 242.918 C 72.485 246.677 81.073 255.628 87.932 251.709 C 91.715 249.547 91.233 240.777 91.386 237.267 C 91.477 235.166 90.132 230.048 92.013 230.988 C 94.992 232.478 98.515 239.395 99.862 241.348 C 100.497 242.269 103.065 245.986 103.943 246.999 C 111.27 255.453 116.137 248.974 124.036 246.999" style="stroke: black; fill: none;"/>
</svg>