<?xml version="1.0" encoding="utf-8"?>
<svg viewBox="0 0 1782 715" preserveAspectRatio="none" xmlns="http://www.w3.org/2000/svg" filter="url(#shadow2)">
  <defs>
    <filter xmlns="http://www.w3.org/2000/svg" id="filter-droppy" height="130">
      <feGaussianBlur in="SourceAlpha" stdDeviation="3"/>
      <feOffset dx="2" dy="2" result="offsetblur"/>
      <feComponentTransfer>
        <feFuncA type="linear" slope="1"/>
      </feComponentTransfer>
      <feMerge>
        <feMergeNode/>
        <feMergeNode in="SourceGraphic"/>
      </feMerge>
    </filter>
    <filter id="shadow2">
      <feDropShadow dx="2" dy="2" stdDeviation="3"
          flood-color="#4997ff"/>
    </filter>
  </defs>
  <path style="stroke: rgb(0, 0, 0); stroke-width: 9px; fill: none; stroke-linecap: round;" d="M 333.638 24.575 C 330.342 28.526 328.064 31.809 325.968 34.953 C 320.702 42.852 316.908 49.466 312.435 58.412 C 298.78 85.721 287.767 132.243 302.058 160.823 C 306.074 168.855 313.342 175.362 319.652 177.515 C 332.768 181.989 347.638 167.145 353.489 161.725 C 374.239 142.508 407.35 113.105 418.905 89.993 C 421.322 85.158 435.017 68.66 428.38 62.022 C 426.401 60.044 423.053 63.738 422.514 64.278 C 420.288 66.503 422.426 84.37 423.224 87.544 C 425.855 98.006 427.037 111.172 430.442 121.83 C 433.448 131.241 437.365 137.956 443.683 144.272 C 445.889 146.479 450.214 150.266 453.462 152.069 C 457.564 154.346 469.475 162.063 474.986 156.554 C 479.717 151.824 483.64 147.138 486.547 141.322 C 495.523 123.366 497.581 80.692 497.228 68.816 C 496.969 60.134 495.395 46.252 491.621 40.269 C 489.136 36.327 485.66 31.912 480.536 29.644 C 477.985 28.515 472.007 26.448 468.532 28.186 C 458.341 33.281 457.99 64.757 460.371 72.241 C 461.94 77.174 464.469 81.89 467.356 86.576 C 470.718 92.032 486.828 112.225 502.82 120.22 C 506.435 122.027 518.68 123.05 524.292 123.419 C 529.367 123.753 543.96 123.624 544.525 123.624"/>
  <path style="stroke: rgb(0, 0, 0); stroke-width: 9px; fill: none; stroke-linecap: round;" d="M 528.986 142.326 C 543.88 147.29 564.374 144.834 573.65 135.559 C 577.048 132.161 581.739 120.881 575.003 117.512 C 562.746 111.384 537.721 127.167 530.79 134.657 C 527.524 138.185 523.486 146.682 526.279 152.251 C 530.454 160.577 537.538 162.565 545.948 164.75 C 554.912 167.077 570.776 163.186 577.71 160.373 C 589.521 155.578 627.678 138.031 639.517 114.354 C 644.394 104.604 652.061 87.344 654.857 79.166 C 657.797 70.563 666.141 35.699 657.063 31.161 C 649.18 27.219 641.649 34.062 637.355 38.879 C 632.907 43.87 614.96 65.317 610.644 78.263 C 602.693 102.114 606.969 141.113 619.666 150.447 C 627.049 155.872 634.768 161.393 644.249 161.994 C 650.772 162.408 661.795 154.326 665.003 154.326"/>
  <path style="stroke: rgb(0, 0, 0); stroke-width: 9px; fill: none; stroke-linecap: round;" d="M 708.543 125.634 C 694.439 116.231 670.626 133.794 666.587 141.875 C 664.259 146.529 663.813 158.5 667.487 162.177 C 676.661 171.346 703.168 167.42 712.495 158.067 C 716.378 154.17 721.786 164.723 725.236 161.273 C 727.676 158.833 738.102 152.539 739.855 152.539"/>
  <path style="stroke: rgb(0, 0, 0); stroke-width: 9px; fill: none; stroke-linecap: round;" d="M 777.38 126.08 C 764.517 119.502 752.323 132.219 746.576 137.875 C 740.944 143.421 743.096 161.753 749.22 164.706 C 759.173 169.502 791.979 172.154 798.774 158.567 C 802.94 150.231 798.121 142.576 793.811 138.265 C 792.859 137.315 781.99 131.588 782.532 131.048 C 783.692 129.887 792.515 129.889 794.26 129.889 C 802.644 129.889 808.711 138.042 817.721 136.01 C 819.675 135.568 827.834 133.281 827.834 133.281"/>
  <path style="stroke: rgb(0, 0, 0); stroke-width: 9px; fill: none; stroke-linecap: round;" d="M 838.024 112.098 C 831.101 116.712 823.563 152.229 831.256 159.921 C 834.072 162.737 841.18 154.077 842.219 151.998 C 845.839 144.759 855.298 129.417 862.955 125.588 C 865.979 124.075 869.945 120.843 874.114 122.927 C 883.649 127.695 884.19 153.301 893.514 162.628 C 896.071 165.186 901.015 158.525 902.536 156.762 C 908.341 150.032 921.399 133.115 930.057 126.986 C 933.781 124.353 936.925 129.444 937.726 131.048 C 942.965 141.524 940.061 152.768 947.495 160.201 C 952.756 165.461 973.337 153.577 973.337 147.523"/>
  <path style="stroke: rgb(0, 0, 0); stroke-width: 9px; fill: none; stroke-linecap: round;" d="M 974.658 142.187 C 982.694 139.507 997.307 144.613 1006.642 144.613 C 1019.243 144.613 1036.488 131.567 1024.75 120.378 C 1022.549 118.281 1010.567 116.365 1006.827 117.265 C 999.63 118.993 990.917 124.701 986.607 127.921 C 983.303 130.391 977.266 135.205 975.654 139.23 C 974.999 140.864 972.805 146.262 974.207 150.135 C 978.188 161.134 992.471 170.029 1007.856 164.898 C 1014.644 162.638 1021.992 155.766 1028.002 159.577 C 1030.235 160.995 1035.138 164.584 1035.13 164.895"/>
  <path style="stroke: rgb(0, 0, 0); stroke-width: 9px; fill: none; stroke-linecap: round;" d="M 1135.329 62.022 C 1136.864 66.626 1128.541 76.315 1126.442 80.513 C 1120.422 92.554 1116.966 116.272 1116.389 130.101 C 1116.119 136.618 1115.689 146.06 1119.308 153.14 C 1125.718 165.682 1128.681 166.661 1139.841 168.945 C 1147.548 170.522 1165.742 165.95 1165.742 160.729"/>
  <path style="stroke: rgb(0, 0, 0); stroke-width: 9px; fill: none; stroke-linecap: round;" d="M 1098.786 97.662 C 1098.786 100.843 1107.487 102.173 1110.517 102.173 C 1122.134 102.173 1138.842 103.816 1148.864 99.918 C 1151.918 98.731 1166.91 93.395 1166.91 96.761"/>
  <path style="stroke: rgb(0, 0, 0); stroke-width: 9px; fill: none; stroke-linecap: round;" d="M 1195.783 125.634 C 1180.24 125.634 1173.777 131.669 1169.528 136.718 C 1165.868 141.067 1161.385 153.486 1163.203 156.157 C 1166.025 160.309 1170.431 165.544 1173.618 167.704 C 1185.129 175.506 1208.302 164.317 1213.941 158.675 C 1217.441 155.176 1220.578 141.083 1217.428 138.09 C 1214.638 135.44 1204.858 132.856 1205.565 132.147 C 1208.179 129.535 1236.053 128.908 1238.325 131.18 C 1240.075 132.93 1249.888 135.339 1249.559 135.339"/>
  <path style="stroke: rgb(0, 0, 0); stroke-width: 9px; fill: none; stroke-linecap: round;" d="M 1303.676 112.355 C 1302.787 118.542 1301.282 123.291 1300.45 128.792 C 1299.816 132.989 1299.24 135.552 1297.243 143.189 C 1295.452 150.037 1295.206 158.287 1297.743 160.823 C 1301.455 164.534 1308.031 154.126 1309.474 152.704 C 1315.687 146.566 1332.41 121.537 1342.406 126.535 C 1353.353 132.009 1350.786 153.862 1359.55 162.628 C 1364.672 167.75 1369.731 162.128 1373.986 158.567 C 1384.556 149.728 1394.928 136.276 1402.86 128.34 C 1405.622 125.578 1406.71 139.262 1406.922 140.521 C 1408.329 148.926 1411.587 154.664 1417.748 160.823 C 1422.364 165.437 1435.206 152.891 1437.632 150.792 C 1439.992 148.748 1445.356 144.486 1443.466 144.486"/>
  <path style="stroke: rgb(0, 0, 0); stroke-width: 9px; fill: none; stroke-linecap: round;" d="M 1461.961 119.768 C 1453.988 117.112 1440.599 139.074 1444.818 148.642 C 1449.701 159.721 1450.548 164.328 1461.961 167.527 C 1468.715 169.419 1473.223 165.867 1476.674 164.014 C 1486.836 158.557 1500.491 133.724 1502.115 131.498 C 1503.382 129.756 1510.945 118.223 1511.588 118.866 C 1513.547 120.826 1516.142 125.83 1517 128.792 C 1525.596 158.418 1528.367 209.776 1503.467 225.338 C 1494.093 231.195 1486.241 236.656 1476.397 241.579 C 1473.13 243.213 1465.693 244.861 1462.865 242.03 C 1456.33 235.494 1469.474 217.113 1473.144 211.983 C 1479.92 202.518 1485.83 193.236 1491.737 186.087 C 1502.91 172.563 1513.904 158.077 1530.085 147.289 C 1538.451 141.711 1546.269 135.372 1555.349 130.596 C 1559.766 128.274 1571.093 123.24 1570.598 123.24"/>
  <path style="stroke: rgb(0, 0, 0); stroke-width: 9px; fill: none; stroke-linecap: round;" d="M 104.896 328.396 C 110.775 346.034 116.252 371.234 110.661 393.592 C 109.154 399.621 108.015 406.549 107.557 412.662 C 107.394 414.818 105.128 419.751 107.557 419.984 C 109.881 420.206 108.727 413.588 108.888 413.106 C 110.797 407.379 111.675 400.994 113.095 394.698 C 119.02 368.443 116.061 346.168 132.837 326.178 C 142.383 314.804 158.534 313.227 169.205 318.639 C 177.087 322.637 182.772 332.653 180.736 338.597 C 175.965 352.53 166.659 360.058 151.678 355.593 C 147.916 354.471 137.907 348.91 134.402 347.767 C 131.44 346.8 126.931 351.899 126.931 353.327"/>
  <path style="stroke: rgb(0, 0, 0); stroke-width: 9px; fill: none; stroke-linecap: round;" d="M 227.515 328.488 C 221.468 326.472 232.522 336.194 225.021 336.685 C 192.37 338.825 190.61 361.692 205.34 369.059 C 216.88 374.829 235.975 364.789 240.912 354.913 C 245.364 346.01 234.218 334.994 241.193 333.25 C 257.491 329.177 272.848 333.871 284.073 339.484 C 288.441 341.668 291.495 345.786 292.944 350.128 C 293.121 350.661 289.434 361.814 293.32 361.781 C 297.145 361.748 293.282 354.097 293.387 353.675 C 294.776 348.117 297.062 343.442 300.039 339.041 C 306.144 330.012 322.205 322.631 331.528 322.631 C 336.618 322.631 347.495 324.196 347.495 327.066"/>
  <path style="stroke: rgb(0, 0, 0); stroke-width: 9px; fill: none; stroke-linecap: round;" d="M 374.106 271.627 C 367.94 273.682 364.448 285.27 363.018 291.585 C 359.674 306.338 354.158 325.296 355.477 343.032 C 355.923 349.028 355.486 356.86 360.357 360.772 C 366.363 365.594 385.403 369.163 394.063 367.424 C 397.745 366.685 401.286 364.593 401.159 362.546"/>
  <path style="stroke: rgb(0, 0, 0); stroke-width: 9px; fill: none; stroke-linecap: round;" d="M 338.181 305.335 C 338.269 309.668 345.3 309.581 349.269 309.768 C 361.994 310.374 375.331 309.292 386.967 307.551 C 389.935 307.108 406.441 304.043 403.376 307.108"/>
  <path style="stroke: rgb(0, 0, 0); stroke-width: 9px; fill: none; stroke-linecap: round;" d="M 459.703 287.15 C 458.434 289.052 464.498 279.334 465.911 276.506 C 469.493 269.341 477.054 255.341 470.79 247.234 C 466.846 242.129 449.705 233.43 438.421 240.585 C 435.857 242.211 433.02 243.768 429.693 249.307 C 425.522 256.248 424.222 273.866 424.222 281.383 C 424.222 310.667 434.422 339.143 434.422 369.199 C 434.422 387.685 429.201 396.221 418.451 406.083 C 414.98 409.27 399.615 418.182 402.047 410.889"/>
  <path style="stroke: rgb(0, 0, 0); stroke-width: 9px; fill: none; stroke-linecap: round;" d="M 399.386 335.493 C 401.761 339.057 407.982 337.731 411.803 337.266 C 424.115 335.769 439.415 330.17 451.275 330.17 C 455.31 330.17 472.825 328.136 471.677 329.284"/>
  <path style="stroke: rgb(0, 0, 0); stroke-width: 9px; fill: none; stroke-linecap: round;" d="M 501.835 326.178 C 487.341 331.01 455.163 355.397 481.878 368.755 C 494.325 374.979 517.77 364.403 524.546 358.029 C 528.669 354.152 530.278 353.059 527.207 346.941 C 524.621 341.79 504.55 336.769 504.9 335.579 C 505.251 334.385 518.915 333.624 523.921 333.445 C 527.676 333.312 555.056 329.204 555.056 334.605"/>
  <path style="stroke: rgb(0, 0, 0); stroke-width: 9px; fill: none; stroke-linecap: round;" d="M 549.775 352.241 C 560.56 343.353 573.012 327.743 580.336 316.421 C 586.065 307.566 590.099 297.106 593.461 287.809 C 597.281 277.251 602.43 256.372 594.791 248.733 C 593.42 247.362 588.257 244.653 583.855 245.262 C 569.306 247.271 554.178 267.459 548.771 283.678 C 546.304 291.081 543.293 300.18 543.521 307.827 C 543.655 312.324 543.443 326.456 545.743 331.057 C 551.495 342.56 552.223 356.782 567.919 359.442 C 576.39 360.878 596.683 348.278 598.521 357.668"/>
  <path style="stroke: rgb(0, 0, 0); stroke-width: 9px; fill: none; stroke-linecap: round;" d="M 610.377 317.848 C 597.435 333.363 603.011 347.521 605.173 355.007 C 606.096 358.2 609.154 366.548 613.599 362.103 C 618.269 357.434 631.9 346.581 637.548 346.581"/>
  <path style="stroke: rgb(0, 0, 0); stroke-width: 9px; fill: none; stroke-linecap: round;" d="M 665.933 327.953 C 645.9 315.706 625.589 349.699 639.323 363.434 C 642.432 366.543 649.518 366.618 653.705 366.864 C 677.548 368.271 686.085 360.195 687.997 350.486 C 689.735 341.668 674.371 334.538 675.619 332.439 C 676.361 331.188 684.895 334.61 686.779 335.493 C 693.108 338.457 711.282 338.044 716.05 333.275 C 717.011 332.314 721.033 334.067 722.409 334.292"/>
  <path style="stroke: rgb(0, 0, 0); stroke-width: 9px; fill: none; stroke-linecap: round;" d="M 613.472 299.283 C 619.273 290.582 627.823 307.71 614.803 307.71"/>
  <path style="stroke: rgb(0, 0, 0); stroke-width: 9px; fill: none; stroke-linecap: round;" d="M 721.548 427.344 C 731.119 403.282 835.437 233.866 833.678 236.956"/>
  <path style="stroke: rgb(0, 0, 0); stroke-width: 9px; fill: none; stroke-linecap: round;" d="M 833.243 316.96 C 844.319 314.318 841.318 357.899 841.318 383.226 C 841.318 386.305 844.375 408.499 840.536 408.106 C 837.881 407.833 840.739 399.108 840.824 398.516 C 842.12 389.462 841.387 382.989 843.273 375.44 C 848.725 353.632 845.397 317.296 867.328 309.267 C 875.894 306.129 890.307 301.824 898.077 308.037 C 904.36 313.061 918.722 328.812 911.275 339.623 C 905.838 347.516 900.956 350.84 895.019 351.785 C 882.054 353.848 876.282 354.332 869.148 353.559 C 865.244 353.137 852.241 350.239 858.048 346.064"/>
  <path style="stroke: rgb(0, 0, 0); stroke-width: 9px; fill: none; stroke-linecap: round;" d="M 929.169 334.151 C 925.547 334.151 938.751 337.558 943.607 337.558 C 952.97 337.558 965.486 334.192 970.626 329.052 C 974.011 325.668 980.785 319.198 974.628 313.041 C 972.257 310.669 960.444 311.674 951.756 314.447 C 939.171 318.46 915.792 335.258 932.599 352.069 C 948.557 368.028 967.902 351.396 981.084 343.944 C 985.328 341.544 997.811 336.316 998.288 343.61"/>
  <path style="stroke: rgb(0, 0, 0); stroke-width: 9px; fill: none; stroke-linecap: round;" d="M 996.143 324.049 C 1006.147 318.711 1020.359 324.968 1023.162 332.555 C 1024.391 335.881 1022.339 357.407 1025.664 357.572 C 1029.8 357.775 1027.564 348.461 1029.31 343.347 C 1033.417 331.31 1039.338 321.964 1050.181 316.543 C 1057.465 312.901 1066.324 308.989 1075.699 311.04 C 1081.069 312.214 1086.536 320.134 1086.536 313.601"/>
  <path style="stroke: rgb(0, 0, 0); stroke-width: 9px; fill: none; stroke-linecap: round;" d="M 1087.78 356.236 C 1092.328 349.166 1112.078 354.263 1116.728 354.07 C 1120.331 353.919 1122.961 352.76 1124.732 351.067 C 1127.365 348.551 1128.304 344.231 1126.733 341.562 C 1121.071 331.934 1098.248 331.008 1092.417 330.168 C 1089.407 329.734 1077.061 325.689 1082.203 320.546 C 1091.46 311.289 1109.016 309.585 1123.733 309.585 C 1129.582 309.585 1145.317 311.012 1143.466 314.463"/>
  <path style="stroke: rgb(0, 0, 0); stroke-width: 9px; fill: none; stroke-linecap: round;" d="M 1173.766 318.045 C 1150.988 310.452 1131.617 348.506 1154.753 360.073 C 1172.1 368.747 1189.358 348.12 1194.528 337.778 C 1197.614 331.604 1177.544 327.118 1178.092 325.816 C 1178.627 324.545 1187.068 325.176 1191.485 324.889 C 1196.695 324.549 1201.541 323.586 1206.789 324.049 C 1210.884 324.411 1214.061 325.332 1213.954 327.972"/>
  <path style="stroke: rgb(0, 0, 0); stroke-width: 9px; fill: none; stroke-linecap: round;" d="M 1218.504 318.03 C 1227.127 325.203 1216.591 345.097 1223.8 350.567 C 1227.45 353.334 1233.584 346.382 1235.262 344.976 C 1240.134 340.899 1255.482 325.609 1265.83 319.545 C 1268.135 318.195 1272.583 320.487 1273.335 321.547 C 1277.47 327.372 1272.539 344.916 1279.84 348.566 C 1287.005 352.149 1301.869 345.336 1300.587 345.77"/>
  <path style="stroke: rgb(0, 0, 0); stroke-width: 9px; fill: none; stroke-linecap: round;" d="M 1355.391 318.545 C 1353.45 312.721 1339.149 310.232 1332.376 312.04 C 1319.249 315.543 1293.356 330.069 1303.357 350.067 C 1311.742 366.837 1330.944 344.712 1340.382 339.059 C 1344.928 336.336 1349.62 331.739 1351.388 333.555 C 1356.695 339.001 1360.364 347.533 1366.399 353.569 C 1373.499 360.67 1392.926 342.007 1397.421 335.557 C 1406.81 322.082 1427.812 292.687 1433.445 266.008 C 1436.033 253.75 1437.175 244.235 1428.942 235.488 C 1422.717 228.873 1411.505 238.113 1403.425 249.496 C 1392.226 265.277 1381.037 304.099 1384.411 321.047 C 1386.812 333.109 1392.13 345.686 1401.923 352.069 C 1406.354 354.956 1410.014 355.308 1412.932 355.571 C 1418.826 356.104 1425.966 356.373 1427.442 355.571 C 1431.497 353.365 1438.851 341.788 1440.45 347.065"/>
  <path style="stroke: rgb(0, 0, 0); stroke-width: 9px; fill: none; stroke-linecap: round;" d="M 1491.01 354.04 C 1495.464 355.636 1508.751 355.607 1512.506 355.127 C 1517.08 354.542 1525.689 351.445 1529.012 348.121 C 1533.696 343.435 1523.04 338.379 1520.505 337.113 C 1511.304 332.513 1497.745 329.034 1488.483 326.606 C 1484.833 325.649 1480.328 324.494 1482.479 318.1 C 1486.104 307.32 1509.196 307.712 1520.613 308.497 C 1528.328 309.028 1545.17 313.19 1543.713 313.09"/>
  <path style="stroke: rgb(0, 0, 0); stroke-width: 9px; fill: none; stroke-linecap: round;" d="M 1564.517 313.013 C 1559.477 320.574 1550.07 347.664 1557.031 354.625 C 1567.126 364.719 1585.376 340.413 1584.35 340.413"/>
  <path style="stroke: rgb(0, 0, 0); stroke-width: 9px; fill: none; stroke-linecap: round;" d="M 1565.151 290.326 C 1568.616 288.016 1573.422 293.562 1570.655 296.331 C 1569.007 297.977 1564.644 297.331 1566.652 297.331"/>
  <path style="stroke: rgb(0, 0, 0); stroke-width: 9px; fill: none; stroke-linecap: round;" d="M 1619.074 264.063 C 1608.547 279.853 1592.881 320.557 1604.063 343.617 C 1608.454 352.672 1619.363 360.129 1631.583 360.129 C 1635.704 360.129 1652.085 358.819 1652.384 354.53"/>
  <path style="stroke: rgb(0, 0, 0); stroke-width: 9px; fill: none; stroke-linecap: round;" d="M 1584.354 296.586 C 1591.249 302.37 1605.213 299.236 1613.57 299.087 C 1623.807 298.906 1638.008 294.177 1645.395 296.072"/>
  <path style="stroke: rgb(0, 0, 0); stroke-width: 9px; fill: none; stroke-linecap: round;" d="M 1646.093 334.611 C 1659.631 334.611 1684.982 337.837 1693.611 329.209 C 1698.965 323.856 1699.644 320.065 1692.413 313.732 C 1689.658 311.32 1679.198 312.206 1672.717 314.001 C 1660.42 317.405 1635.012 336.038 1651.096 352.124 C 1662.564 363.593 1691.864 354.829 1702.954 344.369 C 1705.544 341.926 1713.168 350.416 1717.509 346.339"/>
  <path style="stroke: rgb(0, 0, 0); stroke-width: 9px; fill: none; stroke-linecap: round;" d="M 66.481 668.915 C 75.917 658.377 197.442 531.292 189.236 540.771"/>
  <path style="stroke: rgb(0, 0, 0); stroke-width: 9px; fill: none; stroke-linecap: round;" d="M 170.029 666.799 C 164.173 666.799 147.357 668.452 142.279 665.92 C 138.833 664.202 136.94 658.581 138.351 657.169 C 142.33 653.19 151.644 662.39 154.753 663.944 C 162.175 667.655 187.728 667.434 195.402 666.797 C 203.21 666.149 208.829 664.659 214.924 661.685 C 225.812 656.372 227.42 655.419 235.337 648.255 C 250.22 634.786 272.303 599.766 298.184 583.181 C 301.159 581.275 302.655 580.671 307.988 578.861 C 314.439 576.672 333.962 574.204 338.029 579.794 C 340.524 583.224 338.182 584.597 333.75 583.716 C 331.688 583.306 322.04 580.528 321.048 578.544"/>
  <path style="stroke: rgb(0, 0, 0); stroke-width: 9px; fill: none; stroke-linecap: round;" d="M 321.627 580.151 C 313.888 585.31 307.776 589.192 302.372 596.909 C 300.185 600.032 298.214 604.351 297.801 609.746 C 297.308 616.177 297.959 616.753 298.093 622.582 C 298.296 631.443 300.317 645.576 294.748 651.463 C 287.638 658.979 285.221 664.289 278.431 668.892 C 274.326 671.675 251.752 668.567 254.949 665.37 C 259.67 660.649 271.181 666.789 276.16 668.355"/>
  <path style="stroke: rgb(0, 0, 0); stroke-width: 9px; fill: none; stroke-linecap: round;" d="M 285.629 662.394 C 295.022 652.268 306.579 640.059 315.756 628.399 C 323.54 618.509 332.96 608.741 344.664 599.622 C 350.341 595.199 356.783 589.572 362.353 586.524 C 370.509 582.06 374.394 579.593 385.779 575.267 C 398.409 570.468 413.221 568.384 426.458 568.384 C 432.066 568.384 441.58 565.804 445.293 569.517 C 445.614 569.838 451.36 573.725 447.417 576.18 C 442.347 579.337 429.504 567.669 421.843 568.447"/>
  <path style="stroke: rgb(0, 0, 0); stroke-width: 9px; fill: none; stroke-linecap: round;" d="M 436.269 572.534 C 426.387 565.946 412.181 574.578 400.072 581.933 C 383.035 592.281 365.112 614.641 352.648 629.714 C 345.127 638.81 333.479 650.857 340.882 660.735 C 349.442 672.157 365.884 664.611 372.973 658.131 C 378.724 652.874 380.822 645.978 386.233 658.344"/>
  <path style="stroke: rgb(0, 0, 0); stroke-width: 9px; fill: none; stroke-linecap: round;" d="M 326.692 570.036 C 329.096 571.639 343.08 581.759 347.3 574.089 C 349.356 570.352 335.37 568.74 329.828 568.74 C 327.282 568.74 322.634 568.503 315.922 568.384 C 311.324 568.303 293.124 568.13 285.614 569.021 C 280.136 569.671 277.161 570.122 268.498 571.95 C 260.978 573.537 255.077 575.516 247.536 578.692 C 240.266 581.754 234.047 586.215 228.249 591.008 C 222.449 595.803 223.327 594.879 219.108 599.729 C 214.468 605.064 211.649 609.456 208.216 620.216 C 206.595 625.297 208.245 628.974 210.612 632.845 C 213.268 637.188 235.592 658.271 258.638 649.587 C 262.665 648.07 265.867 647.321 268.855 644.333"/>
  <path style="stroke: rgb(0, 0, 0); stroke-width: 9px; fill: none; stroke-linecap: round;" d="M 447.713 627.799 C 452.378 638.024 462.258 636.823 462.128 631.388 C 461.978 625.107 439.998 624.141 429.753 625.317 C 415.649 626.936 399.768 634.396 392.817 646.116 C 388.745 652.982 388.421 658.649 392.119 662.878 C 397.904 669.493 425.314 655.66 434.406 647.282 C 438.915 643.128 444.041 633.963 446.069 635.062 C 448.105 636.165 441.732 639.51 439.401 641.94 C 434.862 646.672 430.189 651.607 427.528 656.813 C 427.025 657.798 423.751 661.077 425.388 664.301 C 429.82 673.032 441.597 654.535 447.507 661.237"/>
  <path style="stroke: rgb(0, 0, 0); stroke-width: 9px; fill: none; stroke-linecap: round;" d="M 471.386 636.488 C 476.522 643.152 487.195 625.213 491.71 628.287 C 494.511 630.194 493.411 633.173 491.356 635.869 C 488.115 640.121 474.978 652.146 471.836 654.673 C 469.183 656.808 463.929 660.791 462.472 662.875 C 461.45 664.336 461.034 669.502 457.653 667.511 C 453.78 665.231 467.459 658.23 469.245 656.724 C 471.226 655.054 475.943 650.07 478.692 647.808 C 483.232 644.072 490.789 635.631 501.338 631.853 C 506.064 630.161 513.872 629.396 518.453 630.783 C 524.063 632.482 527.652 640.17 523.181 639.986"/>
  <path style="stroke: rgb(0, 0, 0); stroke-width: 9px; fill: none; stroke-linecap: round;" d="M 599.037 604.448 C 592.315 608.523 588.647 594.718 580.037 599.66 C 572.866 603.777 563.239 613.758 558.032 620.086 C 549.182 630.84 538.056 645.258 532.359 652.891 C 528.731 657.752 524.93 661.903 515.957 661.805 C 515.169 661.796 506.935 660.977 506.686 662.518 C 506.433 664.082 514.257 666.746 524.769 666.745 C 529.712 666.745 547.742 662.644 550.187 656.456 C 551.156 654.004 551.158 651.327 548.405 647.542 C 544.743 642.508 527.678 637.137 535.11 628.287 C 542.582 619.388 565.752 639.119 574.791 630.07 C 575.646 629.214 583.863 623.606 579.426 620.086 C 573.741 615.576 571.327 634.887 572.855 630.783"/>
  <path style="stroke: rgb(0, 0, 0); stroke-width: 9px; fill: none; stroke-linecap: round;" d="M 577.491 637.151 C 580.545 636.133 587.439 633.549 589.92 631.649 C 595.122 627.664 599.519 629.105 596.898 634.348 C 594.844 638.455 591.531 641.092 588.544 644.078 C 584.891 647.731 579.662 652.603 575.809 656.456 C 574.549 657.717 569.832 661.675 571.734 664.81 C 574.628 669.579 591.855 648.798 592.568 654.826"/>
  <path style="stroke: rgb(0, 0, 0); stroke-width: 9px; fill: none; stroke-linecap: round;" d="M 606.526 615.604 C 604.785 615.604 598.808 617.286 600.107 619.883 C 601.25 622.168 606.802 620.676 607.952 619.526 C 610.062 617.416 603.935 616.674 608.308 616.674"/>
  <path style="stroke: rgb(0, 0, 0); stroke-width: 9px; fill: none; stroke-linecap: round;" d="M 614.37 637.202 C 613.306 629.491 633.371 627.876 631.485 633.279 C 628.606 641.525 618.898 650.203 613.097 656.508 C 610.965 658.825 608.293 661.106 605.099 663.588 C 604.029 664.419 599.571 665.554 602.603 666.797 C 605.633 668.04 612.621 658.562 615.083 656.1 C 624.653 646.53 632.494 638.053 645.391 632.923 C 653.361 629.753 665.092 628.279 669.638 631.853 C 673.449 634.849 671.093 639.567 668.517 642.245 C 664.42 646.504 657.298 647.86 653.592 649.325 C 646.544 652.111 640.04 659.311 636.12 663.231 C 633.737 665.614 639.329 665.624 641.214 665.523 C 643.583 665.397 649.329 664.912 653.236 664.657 C 657.924 664.351 668.219 663.69 665.054 669.395"/>
  <path style="stroke: rgb(0, 0, 0); stroke-width: 9px; fill: none; stroke-linecap: round;" d="M 837.281 615.065 C 834.876 611.632 834.035 608.879 827.723 605.852 C 816.789 600.609 794.591 602.098 785.83 609.764 C 783.148 612.11 780.085 615.101 778.169 619.707 C 777.314 621.764 775.646 623.791 776.702 625.902 C 777.914 628.324 780.945 641.03 786.808 637.149 C 788.139 636.268 787.046 633.899 785.993 632.911 C 782.916 630.025 777.696 626.124 772.627 624.434 C 756.014 618.896 729.949 617.774 726.871 641.38 C 726.453 644.583 727.223 649.25 728.771 651.799 C 732.136 657.341 736.439 658.417 741.993 660.567 C 750.806 663.979 756.237 666.22 778.954 666.2 C 802.135 666.18 817.773 663.283 827.56 642.039 C 835.507 624.789 812.948 618.635 803.272 608.949 C 800.73 606.404 798.787 604.681 797.379 603.54 C 793.343 600.268 787.292 596.078 790.068 590.529 C 793.136 584.397 798.195 579.442 803.761 575.858 C 809.903 571.903 814.256 570.895 820.645 570.038 C 824.214 569.559 830.623 569.889 834.376 570.518 C 839.633 571.398 851.754 572.684 858.694 576.51 C 866.531 580.831 866.497 589.805 860.814 593.3 C 857.621 595.264 852.724 596.963 847.681 596.461 C 843.572 596.052 828.362 586.454 829.709 597.253"/>
  <path style="stroke: rgb(0, 0, 0); stroke-width: 9px; fill: none; stroke-linecap: round;" d="M 886.407 628.568 C 887.953 625.989 894.275 631.496 897.816 631.281 C 899.175 631.199 904.054 630.182 901.728 627.858 C 899.676 625.806 894.727 626.161 890.607 626.34 C 886.444 626.521 879.421 627.901 874.658 628.836 C 864.43 630.843 854.177 638.178 848.874 644.321 C 846.703 646.836 841.676 653.318 843.795 659.484 C 848.211 672.335 865.316 666.413 875.647 661.763 C 881.976 658.914 883.05 657.487 886.08 654.591 C 889.753 651.08 893.744 645.805 893.744 642.027 C 893.744 641.284 894.268 638.818 892.926 637.475 C 889.02 633.566 888.371 640.392 888.688 644.321 C 888.742 644.996 889.753 649.544 890.381 648.287"/>
  <path style="stroke: rgb(0, 0, 0); stroke-width: 9px; fill: none; stroke-linecap: round;" d="M 910.042 636.008 C 914.648 633.704 919.444 631.298 924.386 629.651 C 925.982 629.119 931.187 629.092 929.766 631.933 C 928.014 635.435 926.516 636.595 923.954 639.708 C 919.94 644.585 914.905 649.807 910.508 655.08 C 908.405 657.603 905.771 660.165 903.684 662.252 C 902.91 663.027 901.883 664.294 901.076 664.697 C 900.551 664.96 899.511 666.164 900.098 666.164 C 901.141 666.164 902.996 664.019 903.522 663.23 C 905.823 659.778 909.254 657.66 911.998 654.917 C 919.786 647.129 928.472 636.12 938.705 632.583 C 942.084 631.415 944.559 630.264 950.074 630.012 C 956.422 629.723 961.965 630.066 965.138 633.237 C 967.414 635.511 966.341 639.766 963.671 642.365 C 959.423 646.501 951.628 650.629 945.903 654.428 C 941.007 657.677 935.311 661.267 933.026 665.838 C 932.414 667.062 939.446 664.772 940.198 664.534 C 944.633 663.132 950.263 662.959 955.195 663.556 C 957.11 663.788 963.542 664.55 963.522 665.808 C 963.419 672.204 952.6 663.963 948.081 663.258"/>
  <path style="stroke: rgb(0, 0, 0); stroke-width: 9px; fill: none; stroke-linecap: round;" d="M 981.928 647.908 C 994.393 647.908 1005.002 643.747 1015.996 640.083 C 1022.714 637.844 1027.535 635.772 1026.044 632.102 C 1025.257 630.164 1022.496 629.497 1020.626 629.18 C 1017.456 628.642 1014.034 628.873 1010.385 629.885 C 1008.997 630.27 1000.025 633.137 996.051 635.527 C 993.312 637.174 989.673 638.575 982.906 648.886 C 981.478 651.063 979.63 654.477 980.461 658.177 C 982.658 667.965 992.36 665.515 999.859 661.763 C 1003.147 660.118 1006.586 658.599 1010.201 657.415 C 1014.688 655.945 1018.233 655.732 1018.086 655.85"/>
  <path style="stroke: rgb(0, 0, 0); stroke-width: 9px; fill: none; stroke-linecap: round;" d="M 1036.535 651.349 C 1043.602 657.775 1051.879 656.081 1047.783 651.983 C 1043.711 647.91 1031.398 649.577 1028.222 654.102 C 1027.341 655.357 1026.531 658.426 1027.052 660.558 C 1029.076 668.835 1052.098 667.168 1058.472 664.594 C 1062.44 662.992 1064.818 662.086 1066.219 658.049 C 1069.376 648.95 1055.323 646.711 1051.674 641.684 C 1050.624 640.237 1050.288 636.08 1052.327 634.086 C 1057.716 628.815 1062.124 629.27 1070.252 629.764 C 1072.854 629.922 1080.266 632.272 1082.932 631.728 C 1086.912 630.916 1087.34 629.949 1090.116 628.006 C 1091.332 627.155 1091.977 625.451 1091.306 624.108 C 1090.089 621.673 1079.143 617.514 1076.587 620.76 C 1074.648 623.222 1088.477 624.073 1089.726 622.824"/>
  <path style="stroke: rgb(0, 0, 0); stroke-width: 9px; fill: none; stroke-linecap: round;" d="M 1086.89 651.185 C 1084.317 651.185 1093.603 655.528 1094.854 656.153 C 1098.895 658.173 1102.615 655.819 1099.035 652.238 C 1094.936 648.137 1082.962 650.688 1079.732 654.917 C 1078.611 656.384 1077.261 659.689 1079.08 662.089 C 1083.267 667.613 1103.053 667.476 1110.611 664.337 C 1112.201 663.677 1115.48 660.375 1115.704 659.673 C 1118.162 651.983 1113.61 645.768 1106.582 642.575 C 1102.88 640.893 1096.123 638.986 1098.548 635.537 C 1103.211 628.907 1117.839 632.904 1126.704 632.637 C 1131.147 632.503 1134.865 631.972 1137.105 630.734 C 1141.609 628.245 1139.08 623.208 1134.702 618.769 C 1133.674 617.726 1122.703 620.126 1124.689 622.113 C 1125.626 623.051 1138.767 624.256 1138.767 625.548"/>
  <path style="stroke: rgb(0, 0, 0); stroke-width: 9px; fill: none; stroke-linecap: round;" d="M 1175.988 626.647 C 1180.54 625.989 1184.939 629.229 1188.316 630.918 C 1189.437 631.478 1192.543 629.821 1191.907 628.486 C 1191.611 627.865 1187.891 627.091 1186.502 626.88 C 1184.006 626.5 1180.629 626.237 1177.048 626.554 C 1173.467 626.871 1171.347 627.023 1168.082 627.695 C 1161.409 629.068 1159.701 630.473 1153.73 633.649 C 1151.41 634.884 1146.119 638.877 1143.642 640.793 C 1139.471 644.018 1135.677 647.77 1135.155 653.287 C 1135.049 654.41 1135.399 657.302 1135.962 658.758 C 1137.509 662.761 1139.339 664.596 1143.794 665.838 C 1147.434 666.853 1151.573 665.936 1154.227 664.86 C 1161.043 662.096 1168.285 658.683 1174.114 654.754 C 1176.977 652.824 1178.919 650.839 1180.826 648.752 C 1182.964 646.413 1185.657 641.328 1184.057 638.127 C 1183.205 636.422 1180.685 632.37 1177.863 635.193 C 1175.682 637.374 1181.004 643.017 1182.427 643.017"/>
  <path style="stroke: rgb(0, 0, 0); stroke-width: 9px; fill: none; stroke-linecap: round;" d="M 1200.7 636.268 C 1199.138 633.986 1203.285 630.718 1205.525 629.317 C 1208.976 627.159 1211.829 625.994 1216.08 626.144 C 1218.582 626.233 1221.967 629.213 1221.806 630.75 C 1221.489 633.773 1217.211 636.624 1214.218 639.45 C 1210.023 643.41 1203.979 649.006 1199.78 653.203 C 1197.28 655.702 1195.376 658.13 1192.607 661.19 C 1191.667 662.229 1190.665 663.458 1189.836 664.287 C 1189.51 664.613 1187.807 666.176 1188.268 666.176 C 1189.144 666.176 1192.205 662.43 1192.819 661.735 C 1195.661 658.518 1198.533 655.103 1201.736 651.899 C 1209.776 643.855 1216.65 635.492 1227.654 630.708 C 1231.767 628.92 1234.976 627.212 1239.196 626.809 C 1243.899 626.36 1255 628.199 1257.259 631.079 C 1259.983 634.551 1254.976 639.037 1252.252 641.136 C 1250.373 642.584 1245.228 645.25 1242.651 646.846 C 1236.052 650.933 1226.286 655.559 1220.821 661.025 C 1219.84 662.006 1221.777 661.994 1224.166 662.235 C 1227.026 662.523 1229.622 662.827 1232.218 662.983 C 1236.686 663.251 1241.314 664.926 1245.953 665.196 C 1247.834 665.305 1250.905 665.124 1251.435 663.468 C 1252.006 661.684 1248.74 661.192 1247.7 661.031 C 1245.303 660.66 1242.655 661.531 1240.368 662.168 C 1239.605 662.38 1234.142 663.374 1234.922 663.139"/>
  <path style="stroke: rgb(0, 0, 0); fill: none; stroke-width: 9px; stroke-linecap: round;" d="M 1561.398 536.777 C 1588.179 577.716 1585.151 592.278 1587.887 592.278"/>
  <path style="stroke: rgb(0, 0, 0); fill: none; stroke-width: 9px; stroke-linecap: round;" d="M 1601.758 527.919 C 1610.941 541.694 1626.53 573.979 1626.53 587.943"/>
  <path style="stroke: rgb(0, 0, 0); fill: none; stroke-width: 9px; stroke-linecap: round;" d="M 1514.816 602.08 C 1523.521 604.982 1559.404 637.484 1578.016 645.435 C 1606.416 657.567 1631.949 649.85 1639.156 647.753 C 1682.933 635.015 1684.013 615.287 1684.013 573.583"/>
  <path style="fill: none; stroke: rgba(0, 0, 0, 0);" d="M 1428.08056640625 696.0508422851562 C 1456.9612389473266 667.1696252366788 1530.4639700719026 690.6552124023438 1564.0504150390625 690.6552124023438"/>
</svg>