<?xml version="1.0" encoding="utf-8"?>
<svg viewBox="0 0 274.266357421875 212.18960571289062" xmlns="http://www.w3.org/2000/svg">
  <defs>
    <clipPath id="clipPath18">
      <path d="m 0,0 6874.96,0 0,1603 L 0,1603 0,0 z" id="path20"/>
    </clipPath>
  </defs>
  <g transform="matrix(1.25, 0, 0, -1.25, 8.964882, 207.980301)" id="g10">
    <g transform="scale(0.1,0.1)" id="g12">
      <g id="g14">
        <g clip-path="url(#clipPath18)" id="g16">
          <path d="M 1247.1,497.781 1580.77,0 2086.81,0 1494.58,875.016 1247.1,497.781" id="path30" style="fill:#429f87;fill-opacity:1;fill-rule:nonzero;stroke:none"/>
          <path d="M 240.547,221.488 474.922,442.281 849.641,0 609.094,887.191 387.129,556.289 240.547,221.488" id="path32" style="fill:#429f87;fill-opacity:1;fill-rule:nonzero;stroke:none"/>
          <path d="M 240.547,221.488 609.094,887.191 374.773,666.297 0,1108.59 240.547,221.488" id="path34" style="fill:#56c5a8;fill-opacity:1;fill-rule:nonzero;stroke:none"/>
          <path d="m 2038.56,1603.08 -506.04,0 -309.93,-457.92 0,457.92 -464.184,0 0,-474.93 L 1005.9,216.012 1063.58,0 l 159.01,0 0,400.781 815.97,1202.299" id="path36" style="fill:#56c5a8;fill-opacity:1;fill-rule:nonzero;stroke:none"/>
        </g>
      </g>
    </g>
  </g>
</svg>